<?xml version="1.0" standalone="no"?>
<!DOCTYPE svg PUBLIC "-//W3C//DTD SVG 1.1//EN" "http://www.w3.org/Graphics/SVG/1.1/DTD/svg11.dtd" >
<svg xmlns="http://www.w3.org/2000/svg">
<metadata></metadata>
<defs>
<font id="didot_displayregular" horiz-adv-x="884" >
<font-face units-per-em="2048" ascent="1638" descent="-410" />
<missing-glyph horiz-adv-x="409" />
<glyph unicode="ft" horiz-adv-x="974" d="M29 0v20h55q35 0 42 8t7 42v860q0 95 25 176.5t66 138.5t94.5 97.5t110.5 59.5t114 19q28 0 55.5 -5t54.5 -16t43.5 -33t16.5 -52q0 -27 -18.5 -48.5t-45.5 -21.5q-25 0 -44 18.5t-19 43.5q0 34 30 57q-25 41 -88 41q-65 0 -114.5 -24.5t-78.5 -63t-47.5 -93t-25 -106.5 t-6.5 -112v-246h360l2 176l123 51v-227h193v-21h-150q-43 0 -43 -49l-4 -514q0 -44 2.5 -70t11.5 -50t27.5 -34.5t48.5 -11.5q49 -2 113 62l12 -11q-17 -25 -62 -51t-95 -26q-103 0 -142 47t-39 149l2 559h-305q-35 0 -45 -13t-10 -50v-656h156v-20h-383z" />
<glyph unicode="fh" horiz-adv-x="1384" d="M29 0v20h55q32 0 40.5 9.5t8.5 40.5v860q0 150 63 270.5t191 183.5q61 31 156 31q124 0 194 -31v-749q55 60 147 105.5t169 45.5q60 0 101.5 -23.5t62 -66.5t28.5 -88.5t8 -103.5v-484h93v-20h-318v20h51q30 0 40.5 14t10.5 50v403q0 46 -2 75.5t-11.5 65t-27 55.5 t-50 34t-78.5 14q-44 0 -87 -19t-67.5 -38.5t-69.5 -59.5v-594h90v-20h-311v20h43q35 0 45 8.5t10 41.5v1220q0 47 -23.5 77t-66.5 30q-65 0 -114 -22.5t-78 -59t-46.5 -89.5t-23.5 -105t-6 -115v-246h174v-21h-119q-35 0 -45 -13t-10 -50v-656h115v-20h-342z" />
<glyph unicode="fj" horiz-adv-x="860" d="M29 0v20h55q35 0 42 8t7 42v860q0 95 25 176.5t66 138.5t94.5 97.5t110.5 59.5t114 19q28 0 55.5 -5t54.5 -16t43.5 -33t16.5 -52q0 -27 -18.5 -48.5t-45.5 -21.5q-25 0 -44 18.5t-19 43.5q0 34 30 57q-25 41 -88 41q-65 0 -114.5 -24.5t-78.5 -63t-47.5 -93t-25 -106.5 t-6.5 -112v-246h174v-21h-119q-35 0 -45 -13t-10 -50v-656h156v-20h-383zM344 -487q0 35 20.5 56t45.5 21q61 0 61 -61q0 -43 -57 -66q1 -1 4 -7.5t4.5 -9t6.5 -8.5t9 -9.5t11 -8t14.5 -6.5t18.5 -4t24 -2q51 0 83 52.5t34 115.5q0 12 -4.5 120t-4.5 152v803q0 5 0.5 17.5 t0 18t-1.5 16t-3.5 15.5t-7 10.5t-12 8t-17.5 2.5h-67v21h231v-821q0 -316 -84 -451q-20 -33 -63.5 -63.5t-83.5 -30.5q-64 0 -113 36t-49 83z" />
<glyph unicode="fb" horiz-adv-x="1386" d="M29 0v20h30q48 0 61 8t13 42v860q0 224 113.5 354.5t296.5 130.5q130 0 194 -31v-708q139 108 285 108q63 -1 118.5 -24t101.5 -68t72.5 -121t26.5 -174q0 -88 -37.5 -169t-95 -135t-125.5 -86t-131 -32q-23 0 -46 2.5t-40 6t-34 8.5t-26.5 9t-20 8.5t-11.5 4.5 q-8 3 -23 10t-25.5 10t-20.5 3q-34 0 -68 -37h-23v1272q0 125 -102 125q-72 0 -123.5 -31.5t-79.5 -88t-40.5 -123t-12.5 -148.5v-246h174v-21q-120 -2 -135 -5q-32 -6 -37 -33q-2 -10 -2 -25v-656h125v-20h-352zM737 135q0 -64 59 -101.5t156 -37.5q123 0 190.5 90.5 t67.5 269.5q0 182 -69 282.5t-203 100.5q-53 0 -98.5 -20.5t-102.5 -63.5v-520z" />
<glyph unicode="ff" horiz-adv-x="964" d="M29 0v20h67q23 0 30 9t7 41v778q0 68 17 137t51 132.5t80.5 113t111 79t137.5 29.5q126 0 189 -75q58 75 140.5 116t162.5 41q26 0 52 -4.5t55 -14.5t47 -32.5t18 -54.5q0 -26 -19 -48t-47 -22q-24 0 -42.5 18.5t-18.5 41.5q0 33 31 59q-11 18 -35 29.5t-53 11.5 q-76 0 -130.5 -31.5t-85 -88.5t-44 -126t-13.5 -153v-246h174v-21h-118q-34 0 -45 -12.5t-11 -50.5v-656h115v-20h-342v20h55q34 0 41.5 8.5t7.5 41.5v860q0 95 24.5 177.5t66.5 137.5q-27 33 -74 56.5t-101 23.5q-274 0 -274 -360v-205h174v-21q-120 -2 -135 -5 q-32 -6 -37 -33q-2 -10 -2 -25v-656h125v-20h-352z" />
<glyph unicode="ffi" horiz-adv-x="1355" d="M29 0v20h55q35 0 42 8t7 42v778q0 136 63.5 265.5t186.5 191.5q67 34 147 34q116 0 189 -73q60 74 142 114.5t163 40.5q28 0 55.5 -5t54.5 -16t43.5 -33t16.5 -52q0 -27 -18.5 -48.5t-45.5 -21.5q-25 0 -44 18.5t-19 43.5q0 33 31 57q-25 41 -88 41q-80 0 -136.5 -35.5 t-85 -97t-40 -126t-11.5 -140.5v-246h174v-21h-118q-35 0 -45.5 -13t-10.5 -50v-656h156v-20h-383v20h55q35 0 42 8t7 42v860q0 183 91 315q-65 80 -177 80q-78 0 -132.5 -29t-84.5 -85t-42.5 -124.5t-12.5 -158.5v-168h174v-21h-119q-35 0 -45 -13t-10 -50v-656h111v-20 h-338zM999 0v20h52q28 0 37.5 11t9.5 47v571q0 22 -0.5 30.5t-3 23t-8 20.5t-16 11t-26.5 5h-45v21h222v-740h90v-20h-312z" />
<glyph unicode="ffl" horiz-adv-x="1349" d="M29 0v20h53q27 0 39 10t12 40v778q0 68 17 137t51 132.5t80.5 113t111 79t137.5 29.5q127 0 191 -77q123 153 303 153q52 0 113 -11t82 -20v-1364h108v-20h-350v20h51q36 0 52 9.5t16 40.5v1216q0 47 -22 80t-66 33q-145 0 -208 -101.5t-63 -291.5v-246h174v-21 q-120 -2 -135 -5q-32 -6 -37 -33q-2 -10 -2 -25v-656h125v-20h-366v20h71q30 0 38.5 9t8.5 41v860q0 183 88 307q-72 88 -172 88q-274 0 -274 -360v-205h174v-21q-120 -2 -135 -5q-32 -6 -37 -33q-2 -10 -2 -25v-656h125v-20h-352z" />
<glyph unicode="&#xfb01;" horiz-adv-x="874" d="M29 0v20h55q35 0 42 8t7 42v860q0 95 25 176.5t66 138.5t94.5 97.5t110.5 59.5t114 19q28 0 55.5 -5t54.5 -16t43.5 -33t16.5 -52q0 -27 -18.5 -48.5t-45.5 -21.5q-25 0 -44 18.5t-19 43.5q0 34 30 57q-25 41 -88 41q-65 0 -114.5 -24.5t-78.5 -63t-47.5 -93t-25 -106.5 t-6.5 -112v-246h174v-21h-119q-35 0 -45 -13t-10 -50v-656h156v-20h-383zM518 0v20h51q28 0 37.5 11t9.5 47v571v30.5t-2.5 23t-8 21t-16 10.5t-26.5 5h-45v21h221v-740h90v-20h-311z" />
<glyph unicode="&#xfb02;" horiz-adv-x="868" d="M29 0v20h53q28 0 39.5 9.5t11.5 40.5v860q0 76 14 140t39.5 110.5t47 74.5t51.5 58q102 102 258 102q134 0 194 -31v-1364h109v-20h-350v20h51q36 0 51.5 9.5t15.5 40.5v1216q0 51 -25.5 81t-76.5 30q-72 0 -123.5 -31.5t-79.5 -88t-40.5 -123t-12.5 -148.5v-246h174v-21 q-120 -2 -135 -5q-32 -6 -37 -33q-2 -10 -2 -25v-656h125v-20h-352z" />
<glyph horiz-adv-x="2048" />
<glyph horiz-adv-x="2048" />
<glyph unicode="&#xd;" horiz-adv-x="2048" />
<glyph unicode=" "  horiz-adv-x="409" />
<glyph unicode="&#x09;" horiz-adv-x="409" />
<glyph unicode="&#xa0;" horiz-adv-x="409" />
<glyph unicode="!" horiz-adv-x="602" d="M164 1249v19h274v-19q-17 0 -29.5 -5t-20 -16.5t-12 -22.5t-6.5 -32t-3 -35t-1 -42t-1 -43l-27 -813h-68l-26 813q0 11 -1 33.5t-1.5 33.5t-1.5 29.5t-3.5 28t-6 23t-9.5 20.5t-13.5 14t-18.5 10.5t-25 3.5zM229 53q0 32 23 55t55 23t55 -23t23 -55t-23 -55t-55 -23 t-55 23t-23 55z" />
<glyph unicode="&#x22;" horiz-adv-x="690" d="M123 1135v20h158v-20q-9 0 -15 -2.5t-10 -8.5t-6 -11.5t-3.5 -16.5t-1.5 -18t-0.5 -21t-0.5 -21l-13 -366h-55l-12 366q0 7 -0.5 21t-1 20.5t-1.5 17.5t-3.5 16.5t-7 11.5t-11.5 9t-16 3zM410 1135v20h157v-20q-9 0 -15 -2.5t-10 -8.5t-6 -11.5t-3.5 -16.5t-1.5 -18 t-0.5 -21t-0.5 -21l-12 -366h-55l-12 366q0 6 -0.5 17t-0.5 16t-1 14.5t-2 14.5t-3 11.5t-5 10.5t-7 7.5t-9.5 5.5t-12.5 2z" />
<glyph unicode="#" horiz-adv-x="2168" d="M49 1348v20h330l758 -1116v1036q0 26 -5 36.5t-28 17t-74 6.5h-47v20h311v-20h-137v-1379h-6l-918 1352v-1301h181v-20h-353v20h31q71 2 97 17.5t26 75.5v1114q0 43 -8 68t-28.5 36.5t-40 14t-58.5 2.5h-31zM1331 784q0 104 55.5 200t146 154t189.5 58q96 0 174 -33.5 t126.5 -90.5t74 -129t25.5 -152q0 -100 -51 -192t-148 -152t-215 -60q-157 0 -267 113.5t-110 283.5zM1466 795q0 -170 77.5 -279.5t172.5 -109.5q63 0 111.5 23.5t78.5 61.5t49 90.5t26.5 104.5t7.5 109q0 168 -76 275.5t-193 107.5q-64 0 -114.5 -35t-80 -92t-44.5 -122.5 t-15 -133.5zM1528 154v41h397v-41h-397z" />
<glyph unicode="$" horiz-adv-x="946" d="M123 51v207h20q25 -143 114 -204t237 -58v532q-15 9 -48.5 30t-48 30t-43.5 28.5t-42 30.5t-35.5 31t-33 35.5t-25 37.5t-20.5 43t-11 47.5t-5 55.5q0 134 83 220t229 93v224h22v-224q136 0 277 -65v-195h-21q-20 112 -83.5 174.5t-170.5 61.5h-2v-506l29 -18 q120 -78 152 -103q110 -90 124 -203q2 -18 2 -37q0 -141 -87 -237t-220 -107v-233h-22v233h-5q-86 0 -194.5 24t-171.5 52zM274 952q0 -75 45 -124.5t175 -133.5v492q-65 -5 -111 -29t-68.5 -60.5t-31.5 -71.5t-9 -73zM516 -2q116 9 171.5 79t49.5 173q-2 42 -18 77.5 t-48.5 68t-66 58t-88.5 60.5v-516z" />
<glyph unicode="%" horiz-adv-x="1075" d="M102 664q0 95 60.5 152.5t154.5 57.5q78 0 132.5 -55t54.5 -153q0 -97 -62 -161.5t-141 -64.5q-81 0 -140 63t-59 161zM135 0l742 870h38l-737 -870h-43zM186 666q0 -93 30.5 -150t90.5 -57q59 0 89 63.5t30 143.5q0 78 -27.5 135t-85.5 57q-62 0 -94.5 -54t-32.5 -138z M571 209q0 96 60 154.5t155 58.5q77 0 132 -55.5t55 -153.5q0 -97 -62 -161t-141 -64q-81 0 -140 61.5t-59 159.5zM653 211q0 -93 30.5 -150t92.5 -57q40 0 67.5 33.5t38.5 78.5t11 95q0 80 -27 137.5t-86 57.5q-60 0 -93.5 -55.5t-33.5 -139.5z" />
<glyph unicode="&#x26;" horiz-adv-x="1189" d="M61 281q0 62 17 109t61.5 88t72.5 60.5t98 60.5q12 7 18 11l-28 28t-29.5 30.5t-26 28.5t-27 32t-22 31.5t-20.5 35.5l-14 35t-11 40.5t-3 41.5q0 122 82.5 198.5t206.5 76.5q110 0 183 -59t73 -173q0 -45 -14.5 -85.5t-34.5 -68t-54 -56.5t-59.5 -46t-65.5 -42 q-4 -2 -6 -3.5t-5.5 -3.5t-6.5 -4l297 -340q12 26 38.5 100t51 131t60.5 119.5t83.5 98t102.5 35.5q49 0 75 -27t26 -66q0 -32 -21 -52.5t-45 -20.5q-32 0 -51 19t-19 44q0 14 14 28t29 19q0 6 -6.5 13.5t-17.5 7.5q-35 0 -69.5 -22t-61.5 -58.5t-45.5 -70.5t-34.5 -70 l-96 -240q40 -44 78.5 -87.5t60 -69t43 -50t33 -36t23 -21t19.5 -12.5t17 -3q81 0 135 111l13 -10q-10 -19 -22 -37t-32.5 -39.5t-48 -35t-57.5 -13.5q-77 0 -141.5 38t-174.5 165q-28 -53 -54.5 -89t-65.5 -68.5t-93 -48.5t-124 -16q-129 0 -216.5 89.5t-87.5 218.5z M186 348q0 -114 76.5 -214.5t183.5 -100.5q142 0 248 174l-356 389q-81 -39 -116.5 -98t-35.5 -150zM256 971q0 -129 180 -309q154 98 154 276q0 57 -14.5 107.5t-52 88t-91.5 37.5q-74 0 -125 -62t-51 -138z" />
<glyph unicode="'" horiz-adv-x="403" d="M123 1135v20h158v-20q-9 0 -15 -2.5t-10 -8.5t-6 -11.5t-3.5 -16.5t-1.5 -18t-0.5 -21t-0.5 -21l-13 -364l-55 -2l-12 366q-3 65 -11 80q-9 18 -30 19z" />
<glyph unicode="(" horiz-adv-x="524" d="M106 563q0 451 316 793l12 -13q-41 -58 -67 -98.5t-68 -124t-66.5 -163.5t-43.5 -200t-19 -251q0 -381 182 -809l-10 -16q-236 452 -236 882z" />
<glyph unicode=")" horiz-adv-x="524" d="M90 -319q41 58 67 98.5t68 124t66.5 163.5t43.5 200t19 251q0 381 -182 809l10 16q236 -455 236 -878q0 -451 -316 -797z" />
<glyph unicode="*" horiz-adv-x="716" d="M82 905l213 125l10 -12l-178 -168l-35 22zM94 1231l17 39l30 16l160 -188l-10 -13zM362 1006l15 6l119 -203l-29 -31l-35 -4zM365 1114l61 236h41l27 -23l-115 -219zM403 1051v16l244 14l12 -41l-14 -30z" />
<glyph unicode="+" horiz-adv-x="747" d="M72 551v102h250v379h102v-379h252v-102h-252v-508h-102v508h-250z" />
<glyph unicode="," horiz-adv-x="380" d="M96 53q0 37 24.5 61.5t65.5 24.5q48 0 78.5 -35t30.5 -104q0 -61 -45 -139t-107 -140l-10 13q54 64 83.5 120t29.5 119q0 26 -13 39q-14 -39 -65 -39q-28 0 -50 23t-22 57z" />
<glyph unicode="-" horiz-adv-x="561" d="M82 369v73h397v-73h-397z" />
<glyph unicode="." horiz-adv-x="360" d="M102 53q0 32 23 55t55 23t55 -23t23 -55t-23 -55t-55 -23t-55 23t-23 55z" />
<glyph unicode="/" horiz-adv-x="626" d="M51 -233l461 1654h74l-463 -1654h-72z" />
<glyph unicode="0" horiz-adv-x="919" d="M61 623q0 88 15 175.5t48 171t80.5 147t119 102t157.5 38.5q64 0 129.5 -41.5t121 -115.5t91 -192.5t35.5 -258.5q0 -84 -11.5 -169.5t-41 -178t-73 -163t-115.5 -116t-162 -45.5q-81 0 -149 45.5t-112 116.5t-75 159t-44.5 170.5t-13.5 154.5zM193 653q0 -63 5 -134.5 t22.5 -169t45 -172.5t79 -128t118.5 -53q78 0 138.5 79t93 216.5t32.5 308.5q0 166 -23 294t-61 200.5t-82 108.5t-92 36q-60 0 -108.5 -37t-79 -96t-51 -137.5t-29 -156.5t-8.5 -159z" />
<glyph unicode="1" horiz-adv-x="612" d="M37 1090v24l317 123h54v-1217h122v-20h-380v20h43q59 2 75.5 14t16.5 68v1082z" />
<glyph unicode="2" horiz-adv-x="796" d="M0 0q23 45 43 72q44 59 139 131q68 53 133 125t120.5 157.5t90 185.5t35.5 193q0 173 -68.5 261.5t-166.5 88.5q-80 0 -151.5 -54t-94.5 -113l-21 10q2 19 26 51.5t62 67t96 59.5t119 25q138 0 236 -108.5t98 -272.5q0 -60 -17 -121t-42.5 -112t-68.5 -108t-81.5 -99 t-96.5 -95.5t-98 -87.5t-101.5 -85.5t-92.5 -78.5h414q92 0 120 23t58 116h25l-62 -231h-653z" />
<glyph unicode="3" horiz-adv-x="765" d="M31 84q0 24 17.5 42.5t43.5 18.5q21 0 39.5 -16.5t18.5 -40.5q0 -26 -23 -41q24 -24 76 -37.5t94 -13.5q41 0 84.5 19.5t83 56t65 96t25.5 131.5q0 146 -68 244t-190 104l-76 2l2 15q285 104 285 358q0 64 -41.5 120.5t-116.5 57.5q-63 0 -129 -33t-102 -77l-19 14 q56 65 141.5 110.5t161.5 45.5q91 0 155.5 -68.5t64.5 -165.5q0 -94 -73.5 -176.5t-168.5 -134.5l-70 -39q78 0 144.5 -19t119 -57t82 -101t29.5 -145v-12q-2 -88 -58 -172.5t-151 -139.5t-201 -55q-75 0 -139 19t-88 43q-18 18 -18 47z" />
<glyph unicode="4" horiz-adv-x="778" d="M6 477l621 789h20v-1266h-121v477h-520zM106 569h420v535z" />
<glyph unicode="5" horiz-adv-x="772" d="M61 72l17 18q83 -94 196 -94q82 0 142 37t93 101t48.5 138t15.5 160q0 51 -13 102t-38 97t-68.5 75t-99.5 29q-143 0 -211 -133h-30l141 664q92 -45 209 -45q128 0 213 57v-102q-92 -54 -209 -54q-96 0 -215 39l-109 -520q87 119 236 119q139 0 235.5 -105t96.5 -247 q0 -194 -117 -312.5t-297 -118.5q-151 0 -236 95z" />
<glyph unicode="6" horiz-adv-x="843" d="M82 422q0 137 53.5 286.5t141 277t208 226t246.5 136.5q0 -3 1 -9.5t1 -9.5q-104 -35 -189.5 -104.5t-140.5 -151.5t-94.5 -179.5t-58 -183t-25.5 -167.5q38 73 106 117.5t140 44.5q130 0 220.5 -89.5t90.5 -238.5q0 -186 -89 -294t-244 -108q-71 0 -135 26.5t-117 78.5 t-84 140t-31 202zM217 403q0 -190 55 -299.5t166 -109.5q48 0 86 24t60 60t36.5 85t20 93t6.5 90v29q0 48 -3 86t-14.5 82t-30.5 73t-53 48.5t-81 19.5q-73 0 -131.5 -45t-87.5 -108.5t-29 -127.5z" />
<glyph unicode="7" horiz-adv-x="751" d="M68 1004l20 233h680q1 0 -41 -87.5t-110.5 -238t-143 -323t-147 -371.5t-113.5 -354l-39 12q261 809 498 1249h-463q-40 0 -69 -30t-38 -60l-10 -30h-24z" />
<glyph unicode="8" horiz-adv-x="827" d="M61 260q0 32 4.5 61t10.5 51t19.5 44t23 37t31 33t32.5 27t39 25.5t40 23.5t44 24l27 14l-10 6q-27 19 -45 32t-53 47t-56.5 67.5t-39 85t-17.5 106.5q0 51 18.5 103t55 100.5t102 79t149.5 30.5q131 0 218 -77.5t87 -188.5q0 -55 -15 -101.5t-38 -79t-60.5 -62.5 t-73 -50t-85.5 -43q46 -25 81.5 -48t78 -57.5t70.5 -69t47.5 -80t19.5 -93.5q0 -141 -97 -236.5t-257 -95.5q-91 0 -168.5 29.5t-130 96t-52.5 159.5zM174 291q0 -120 69 -207.5t181 -87.5q63 0 110 24.5t72 65.5t37 85.5t12 92.5q0 49 -24 95t-71 86.5t-96 73t-118 69.5 q-58 -32 -92 -63.5t-57 -90.5t-23 -143zM215 950q0 -83 63 -156t171 -128q53 30 91.5 72.5t58 87.5t28 84t8.5 75q0 40 -8.5 79.5t-28.5 81t-62.5 67.5t-101.5 26q-66 0 -112 -28.5t-68 -75.5t-30.5 -91.5t-8.5 -93.5z" />
<glyph unicode="9" horiz-adv-x="841" d="M61 866q0 176 94 283.5t246 107.5q72 0 135.5 -27t114 -79t80 -137t29.5 -193q0 -138 -57 -289.5t-150 -279.5t-219 -226t-256 -132v18q105 31 193 98.5t145.5 148t100 178t64.5 182.5t31 167q-41 -73 -103 -114.5t-126 -41.5q-134 0 -228 89.5t-94 246.5zM199 895 q0 -65 8 -120t28 -109.5t61 -85.5t99 -31q72 0 126.5 48t80 114t25.5 135q0 117 -21 202t-72.5 138t-130.5 53q-54 0 -96 -35t-64 -90t-33 -111t-11 -108z" />
<glyph unicode=":" horiz-adv-x="503" d="M174 53q0 32 23 55t55 23t55 -23t23 -55t-23 -55t-55 -23t-55 23t-23 55zM174 627q0 32 23 55t55 23t55 -23t23 -55t-23 -55t-55 -23t-55 23t-23 55z" />
<glyph unicode=";" horiz-adv-x="509" d="M156 53q0 37 24.5 61.5t65.5 24.5q48 0 78 -35t30 -104q0 -61 -44.5 -139t-106.5 -140l-10 13q54 63 83 119.5t29 119.5q0 27 -12 39q-14 -39 -66 -39q-27 0 -49 23t-22 57zM178 641q0 32 23 55t55 23t55 -23t23 -55t-23 -55t-55 -23t-55 23t-23 55z" />
<glyph unicode="&#x3c;" horiz-adv-x="434" d="M20 604l332 541v-125l-243 -416l243 -416v-125z" />
<glyph unicode="=" horiz-adv-x="1026" d="M92 354v103h842v-103h-842zM92 709v102h842v-102h-842z" />
<glyph unicode="&#x3e;" horiz-adv-x="434" d="M82 63v125l244 416l-244 416v125l332 -541z" />
<glyph unicode="?" horiz-adv-x="626" d="M82 1081v191h27q1 -21 4 -33.5t11.5 -18.5t15.5 -7.5t26 -3.5t31 -5q88 -17 152.5 -45.5t114.5 -75.5t75.5 -118.5t25.5 -167.5q0 -58 -18 -104.5t-47 -77t-63.5 -56t-69.5 -48t-64 -46t-47 -56t-18 -73.5v-92h-27q-33 92 -33 170q0 41 15 71q12 23 53 41.5t89.5 35 t95.5 40t78.5 68t31.5 106.5q0 88 -51 153.5t-132 101t-188 48.5zM150 53q0 32 22.5 55t54.5 23t55 -23t23 -55t-23 -55t-55 -23t-54.5 23t-22.5 55z" />
<glyph unicode="@" horiz-adv-x="927" d="M123 -113q204 -69 352 -69q154 0 330 69v-22q-145 -68 -334 -68q-191 0 -348 68v22zM123 848v22q157 68 348 68q189 0 334 -68v-22q-179 70 -330 70q-145 0 -352 -70zM147 139q0 40 14.5 72.5t42.5 56t58 40.5t73.5 30t75 21t77 17.5t65.5 14.5q4 114 4 172 q0 71 -49 113.5t-121 42.5q-44 0 -98 -18.5t-72 -49.5q4 -3 15.5 -13t16.5 -15.5t13 -15t11 -18.5t3 -20q0 -27 -18 -45t-45 -18q-22 0 -41.5 17t-19.5 40q0 52 47.5 102.5t112.5 80.5t120 30q124 0 182 -55t58 -180q0 -59 -7.5 -177t-7.5 -176q0 -94 13 -129q19 -49 65 -49 q26 0 60 19l6 -11q-41 -38 -131 -38q-60 0 -87 27t-36 89q-43 -33 -60 -44.5t-52.5 -32.5t-67.5 -29t-68 -8q-63 0 -107.5 47t-44.5 110zM256 176q0 -63 38 -98t101 -35q58 0 152 70q0 43 3 130t3 130q-18 -4 -62 -13t-69 -15t-61 -20.5t-55.5 -32t-34.5 -47.5t-15 -69z" />
<glyph unicode="A" horiz-adv-x="1261" d="M-20 0v20q98 0 135 16.5t63 84.5l477 1243h13l401 -1196q10 -29 17.5 -49t17.5 -36.5t17 -26t21.5 -17.5t23.5 -11t31 -5.5t37.5 -2.5h47.5v-20h-479v20h162l-152 488h-459l-192 -488h194v-20h-376zM360 528h445l-213 621z" />
<glyph unicode="B" horiz-adv-x="1112" d="M70 0v20h61q53 0 73.5 20t20.5 77v1128q0 67 -20.5 85t-95.5 18h-39v20h477q198 0 272 -55q65 -47 100 -118.5t35 -156.5q0 -120 -95 -211.5t-218 -124.5q51 -8 100 -23t104.5 -44t97 -67t68.5 -96.5t27 -127.5q0 -191 -184 -295q-87 -49 -268 -49h-516zM369 20h182 q86 0 135.5 16.5t93.5 47.5q111 75 111 250q0 58 -7.5 104.5t-30.5 94t-61.5 79.5t-103.5 52.5t-153 21.5h-166v-666zM369 709q37 -1 69 -1q64 0 109 3q128 8 196 79.5t68 202.5q0 179 -76 273q-36 45 -84.5 63.5t-122.5 18.5h-159v-639z" />
<glyph unicode="C" horiz-adv-x="1269" d="M61 705q0 150 44.5 270t116.5 197t169 128.5t196 73t204 21.5q82 0 208.5 -27t171.5 -45q9 -189 9 -242l-21 -2q-14 89 -47 147.5t-88.5 90t-120 43.5t-155.5 12q-104 0 -197.5 -43t-166.5 -123t-116 -206t-43 -281q0 -111 21 -213t67 -194.5t112.5 -161t164.5 -108.5 t217 -40q93 0 157 17t105.5 56t65.5 89.5t43 128.5l20 -2l-8 -240q-180 -71 -391 -71q-144 0 -278.5 54t-236 147.5t-162.5 230.5t-61 293z" />
<glyph unicode="D" horiz-adv-x="1390" d="M68 0v20q28 0 42 0.5t34 2t30 5.5t21.5 10.5t17 17t9 26t3.5 35.5v1134q0 28 -7 46t-16.5 28t-32 15t-39 6t-52.5 2h-10v20h563q95 0 188.5 -21t187 -72t164 -126t114.5 -193t44 -264q0 -138 -37 -253t-101 -195t-149.5 -136t-182 -82t-200.5 -26h-591zM369 20h297 q81 0 152 21t135 70.5t110 124t73 187.5t27 255q0 144 -28.5 259t-77.5 191t-119.5 126t-149.5 72t-172 22h-247v-1328z" />
<glyph unicode="E" horiz-adv-x="1097" d="M78 0v20h31q67 0 91.5 16.5t24.5 80.5v1151q0 37 -14 58.5t-57 21.5h-76v20h883v-227h-21q-11 108 -55.5 157.5t-159.5 49.5h-356v-652h315q70 0 82 22t12 152h21v-331h-21v137h-321q-34 0 -61 -18t-27 -54v-584h434q68 0 109.5 10t65.5 36.5t33.5 59.5t16.5 93h19v-219 h-969z" />
<glyph unicode="F" horiz-adv-x="993" d="M92 1350v18h873v-229h-19q-27 105 -66.5 157t-123.5 52h-387v-643h311q29 0 41 0.5t28.5 5.5t22 14.5t12 29t8 47.5t1.5 72h20v-331h-20v141h-351q-27 0 -50 -13t-23 -46v-605h174v-20h-449v20h15q74 0 95 13t21 71v1131q0 33 -6 55.5t-14 34t-25 17.5t-30.5 7t-38.5 1 h-19z" />
<glyph unicode="G" horiz-adv-x="1376" d="M61 705q1 148 53 275.5t143.5 219t224.5 143.5t290 52q164 0 399 -72l11 -244h-21q-46 295 -387 295q-117 0 -213.5 -36t-173 -111.5t-119.5 -205t-43 -302.5q0 -135 24 -247t66.5 -189t96.5 -134.5t118 -90t126.5 -47.5t127.5 -15q76 0 148 21t108 49q22 16 32.5 37.5 t10.5 66.5v287q0 35 -18 50t-59 15h-91v21h433v-21h-138q-2 -169 -2 -264.5t2 -116.5q1 -9 4 -20t6 -18l3 -7q-213 -121 -469 -121q-76 0 -153.5 17.5t-157 53.5t-148 96t-121.5 138t-84 188q-29 106 -29 229v8z" />
<glyph unicode="H" horiz-adv-x="1474" d="M78 0v20h14q85 0 109 14t24 75v1091q0 78 -12.5 113t-50.5 35h-84v20h428v-20h-137v-623h737v475q0 50 -1 70.5t-6 42.5t-16 28.5t-32 6.5h-80v20h422v-20h-144v-1328h144v-20h-445v20h58q68 0 84 16t16 87v579h-737v-682h141v-20h-432z" />
<glyph unicode="I" horiz-adv-x="593" d="M92 0v20h14q81 0 100 13t19 76v1148q0 36 -2 52t-12.5 27.5t-32.5 11.5h-86v20h400v-20h-123v-1328h123v-20h-400z" />
<glyph unicode="J" horiz-adv-x="583" d="M-150 -393q0 33 21 56.5t55 23.5q26 0 43 -21t17 -47t-17.5 -42.5t-36.5 -22.5q7 -20 37 -41t64 -21q44 0 86.5 26t62.5 66q47 89 47 295q0 42 -2 106t-2 81v1163q0 84 -10 101.5t-61 17.5h-74v20h432v-20h-143v-1299q0 -103 -14 -185.5t-40 -141t-54 -97.5t-66 -74 q-81 -75 -160 -75t-132 37.5t-53 93.5z" />
<glyph unicode="K" horiz-adv-x="1314" d="M78 0v20h41q64 2 85 19t21 78v1057q0 122 -14.5 148t-89.5 26h-29v20h404v-20h-127v-713l592 713h-164v20h377v-20h-113q-41 0 -69.5 -12.5t-67.5 -59.5l-375 -451l536 -635q67 -81 120 -125.5t79 -44.5h59v-20h-434v20h131l-585 691l-86 -103v-588h127v-20h-418z" />
<glyph unicode="L" horiz-adv-x="1075" d="M76 0v20q83 0 116 18t33 79v1124q0 72 -27 89.5t-122 17.5v20h446v-20h-153v-1328q330 1 508 5q40 1 71.5 22.5t51 57t30.5 71t17 74.5h20v-250h-991z" />
<glyph unicode="M" horiz-adv-x="1701" d="M51 0v20h68q55 2 75.5 20t20.5 73v1120q0 75 -15 95t-79 20h-70v20h322l485 -1194l469 1194h303v-20h-153v-1328h153v-20h-418v20h41q56 0 68 11.5t12 74.5v1225l-532 -1358h-13l-552 1348v-1301h165v-20h-350z" />
<glyph unicode="N" horiz-adv-x="1361" d="M49 1348v20h330l758 -1116v1036q0 26 -5 36.5t-28 17t-74 6.5h-47v20h311v-20h-137v-1379h-6l-918 1352v-1301h181v-20h-353v20h31q71 2 97 17.5t26 75.5v1114q0 43 -8 68t-28.5 36.5t-40 14t-58.5 2.5h-31z" />
<glyph unicode="O" horiz-adv-x="1515" d="M61 692q0 128 42 241.5t112.5 195.5t161.5 141.5t190.5 89t196.5 29.5q139 0 265.5 -51.5t220 -140.5t149 -216.5t55.5 -273.5q0 -133 -43.5 -252.5t-116.5 -205t-165.5 -149t-192.5 -94.5t-197 -31q-95 0 -190.5 29.5t-183.5 90t-155.5 144.5t-108 201.5t-40.5 251.5z M225 688q0 -332 147 -510t392 -178q103 0 198.5 50.5t168 140.5t116 224t43.5 290q0 147 -41.5 272t-112.5 209.5t-167 132t-203 47.5q-149 0 -273.5 -89t-196 -245t-71.5 -344z" />
<glyph unicode="P" horiz-adv-x="1062" d="M61 1348v20h482q118 0 210 -31.5t148.5 -86.5t85.5 -123.5t31 -147.5q0 -160 -81 -269t-210 -155q-86 -29 -190 -29q-81 0 -168 27v-533h149v-20h-432v20q88 0 113.5 15t25.5 82v1083q0 31 -3.5 54.5t-8.5 39.5t-17.5 26t-22 16t-31 8.5t-36.5 3t-45 0.5zM369 573 q22 -11 72.5 -18.5t93.5 -7.5q75 0 147 39q75 43 126.5 147.5t51.5 249.5q0 184 -96.5 274.5t-255.5 90.5h-139v-775z" />
<glyph unicode="Q" horiz-adv-x="1515" d="M61 692q0 140 55 268.5t148.5 222.5t224.5 150t275 56q139 0 265.5 -51.5t220 -140.5t149 -216.5t55.5 -273.5q0 -179 -77.5 -331t-212.5 -252t-308 -138q9 -24 27 -49q50 -67 122.5 -108.5t126.5 -53t103 -11.5q93 0 185 35.5t155 89.5l12 -18q-70 -70 -193 -117 t-243 -47q-45 0 -102.5 13t-127.5 41.5t-139.5 85.5t-117.5 133q-117 17 -224 72.5t-192.5 143.5t-136 216.5t-50.5 279.5zM225 676q0 -315 146 -495.5t401 -180.5q100 0 194 51t165.5 140t115 220.5t43.5 282.5q0 99 -20 194.5t-62.5 182.5t-102.5 153t-146.5 105 t-188.5 39q-159 0 -284.5 -94t-193 -251.5t-67.5 -346.5z" />
<glyph unicode="R" horiz-adv-x="1224" d="M68 1348v20h503q180 0 267 -59q66 -44 90 -107q23 -58 22 -134v-13q-1 -56 -16.5 -104.5t-37 -80t-51 -57.5t-50 -38.5t-41.5 -22.5q-75 -34 -125 -43q12 -6 54.5 -21t77.5 -29.5t79.5 -49t72.5 -79.5q26 -43 36 -107.5t20.5 -138.5t36.5 -130q19 -40 53.5 -74t62.5 -45 q12 -5 24 -8.5t20.5 -5.5t20.5 -3.5t17.5 -2t18 -1t16.5 -0.5v-20h-25h-20q-188 0 -281 74q-14 11 -26 23.5t-21 22.5t-16.5 25t-12.5 23.5t-9 26t-6.5 24.5t-5 26.5t-3 24.5t-2.5 27t-2 26q-4 47 -7.5 77t-8.5 65.5t-11 57t-15 47t-20 40t-27 31t-35 25.5t-44.5 18.5 t-56 14.5t-68.5 9l-147 11v-693h147v-20h-442v20h30q68 0 94.5 16.5t26.5 76.5v1132q0 61 -27.5 81t-93.5 22h-36zM369 735q136 -12 204 -12q59 0 104.5 21.5t71.5 54t42.5 75.5t21.5 81q4 32 4 63v12q-3 70 -23 126t-57.5 100t-98.5 68t-142 24h-127v-613z" />
<glyph unicode="S" horiz-adv-x="960" d="M76 59v238h20q30 -161 127.5 -232t261.5 -71q138 0 216.5 68.5t78.5 199.5q0 47 -14 88t-34.5 71t-59 63.5t-71 56.5t-87.5 57q-21 13 -58 36t-57 35.5t-52 33.5t-50 35.5t-42.5 36.5t-38.5 40.5t-30 43.5t-24 50.5t-13.5 56t-5.5 64.5q0 161 102 261t281 100 q148 0 318 -76v-223h-21q-21 128 -94.5 201t-196.5 73q-68 0 -120.5 -18t-82 -46t-48.5 -66t-25 -71.5t-6 -70.5q0 -93 57 -150t247 -180q3 -3 5 -4q13 -8 47.5 -30t48.5 -31.5t43.5 -30.5t43.5 -33t37.5 -33.5t35 -38t27 -40.5t22 -46.5t12 -51t5.5 -58.5 q0 -172 -110.5 -284t-274.5 -112q-97 0 -221 28t-199 60z" />
<glyph unicode="T" horiz-adv-x="1124" d="M10 1141v227h1104v-227h-20q-6 52 -16.5 86t-33.5 63.5t-63.5 43.5t-101.5 14h-248v-1328h186v-20h-524v20h121q46 0 59.5 22.5t13.5 88.5v1034q0 51 -0.5 76t-5 50t-9 33t-19 15.5t-28.5 8t-44 0.5h-135q-114 0 -158 -49t-57 -158h-21z" />
<glyph unicode="U" horiz-adv-x="1425" d="M35 1348v20h518v-20h-205v-713q0 -141 22 -251t60 -181.5t92.5 -117.5t115.5 -65.5t134 -19.5q60 0 119.5 19t121.5 67t108.5 120t76 188t29.5 261v605q0 57 -34 72.5t-126 15.5h-59v20h389v-20h-150v-670q0 -321 -128 -509.5t-347 -188.5q-73 0 -148 17.5t-151.5 60 t-135 105t-95.5 161.5t-37 221v696q0 65 -25.5 86t-93.5 21h-51z" />
<glyph unicode="V" horiz-adv-x="1255" d="M-31 1348v20h486v-20h-189l424 -1186l422 1186h-207v20h369v-20q-98 -3 -126 -20.5t-54 -92.5l-334 -932q-16 -43 -44 -134t-48 -161l-21 -69h-18q-38 88 -56 141l-426 1161q-16 46 -51 76.5t-80 30.5h-47z" />
<glyph unicode="W" horiz-adv-x="1789" d="M-20 1348v20h415v-20h-127l355 -1174l276 862l-18 68q-44 161 -69 202.5t-85 41.5h-47v20h412v-20h-131l337 -1147l359 1147h-197v20h363v-20h-37q-56 0 -82 -9t-36 -26.5t-24 -64.5q-5 -17 -8 -27q-309 -988 -311 -994q-12 -35 -30.5 -107t-30.5 -126l-13 -55h-12 q-37 108 -57 176l-254 829l-19 68q-12 -38 -18 -58l-283 -882l-37 -133h-12q-31 92 -49 149l-363 1133q-26 81 -43 104t-57 23h-67z" />
<glyph unicode="X" horiz-adv-x="1167" d="M-8 0v20h66t46 6t31.5 8.5t24 19.5t21.5 26t26 41l338 534l-324 596q-7 12 -18.5 33.5t-13.5 26.5t-13 16t-17.5 12t-26 5t-38.5 4h-55v20h459v-20h-160l297 -564l342 564h-191v20h357v-20q-32 0 -53.5 -2t-39 -3t-30.5 -8t-21 -10t-18.5 -16.5t-15 -20t-18 -29 t-21.5 -34.5l-281 -457l299 -559q38 -71 87.5 -130t80.5 -59h59v-20h-448v20h151l-319 617l-387 -617h190v-20h-366z" />
<glyph unicode="Y" horiz-adv-x="985" d="M-45 1348v20h416v-20h-140l332 -699l330 699h-182v20h331v-20q-35 0 -56 -1t-40.5 -7.5t-29 -12.5t-23.5 -25.5t-22 -36t-25 -53.5l-266 -569v-623h159v-20h-467v20h82q82 0 82 76v520l-278 549q-12 23 -28 56.5t-22.5 46t-18 31.5t-19 25t-21.5 13.5t-30 9t-39 1.5h-25z " />
<glyph unicode="Z" horiz-adv-x="1034" d="M20 0l814 1348h-566q-150 0 -225 -246h-23l37 266h947l-811 -1348h595q65 0 124 68.5t83 161.5h21l-31 -250h-965z" />
<glyph unicode="[" horiz-adv-x="600" d="M246 -623v1991h291v-20h-183v-1950h178v-21h-286z" />
<glyph unicode="\" horiz-adv-x="729" d="M41 1319h98l559 -1348h-96z" />
<glyph unicode="]" horiz-adv-x="600" d="M63 1348v20h291v-1991h-286v21h178v1950h-183z" />
<glyph unicode="^" horiz-adv-x="645" d="M41 1049l272 464h35l256 -428l-12 -36l-250 323h-20l-256 -336z" />
<glyph unicode="_" horiz-adv-x="854" d="M-10 -147h874v-82h-874v82z" />
<glyph unicode="`" horiz-adv-x="452" d="M94 1245l41 41h64l108 -393l-14 -4z" />
<glyph unicode="a" horiz-adv-x="718" d="M57 139q0 40 14.5 72.5t42.5 56t58 40.5t73.5 30t75 21t77 17.5t65.5 14.5q4 114 4 172q0 71 -49 113.5t-121 42.5q-44 0 -97 -18.5t-73 -49.5q4 -3 15.5 -13t16.5 -15.5t13 -15t11 -18.5t3 -20q0 -27 -18 -45t-45 -18q-23 0 -42.5 17t-19.5 40t15 49q37 69 113 116.5 t153 47.5q124 0 182 -55t58 -180q0 -59 -7.5 -177t-7.5 -176q0 -94 13 -129q19 -49 65 -49q26 0 60 19l6 -11q-41 -38 -131 -38q-60 0 -87 27t-36 89q-43 -33 -60 -44.5t-52.5 -32.5t-67.5 -29t-68 -8q-62 0 -107 47.5t-45 109.5zM166 176q0 -63 38 -98t101 -35q58 0 152 70 q0 43 3 130t3 130q-18 -4 -62 -13t-69 -15t-61 -20.5t-55.5 -32t-34.5 -47.5t-15 -69z" />
<glyph unicode="b" d="M12 1389v20h224v-733q12 7 51.5 32t54.5 32t46.5 21t60.5 18.5t65 4.5q108 0 183.5 -55.5t109 -141t33.5 -192.5q0 -99 -53 -196t-144 -160.5t-192 -63.5q-55 0 -87 7t-85 30q-58 25 -76 25q-38 0 -68 -37h-22v1309q0 54 -7.5 67t-35.5 13h-58zM236 135q0 -49 37.5 -82.5 t83.5 -45t94 -11.5q60 0 106 21.5t74.5 55.5t46.5 82.5t24.5 97t6.5 103.5q0 54 -7.5 105.5t-27 102.5t-49 89t-76.5 62t-107 24q-37 0 -76.5 -13.5t-64.5 -28.5t-65 -42v-520z" />
<glyph unicode="c" horiz-adv-x="735" d="M47 383q0 111 57 204t149 144t196 51q96 0 174.5 -39.5t78.5 -89.5q0 -29 -19 -50t-48 -21q-26 0 -45 18.5t-19 44.5q0 39 35 64q-60 57 -155 57q-106 0 -186.5 -99.5t-80.5 -238.5q0 -180 87 -296t200 -116q66 0 124.5 44.5t94.5 97.5l17 -11q-11 -19 -34 -45t-59 -56 t-87.5 -50.5t-104.5 -20.5q-71 0 -137.5 28t-119.5 78t-85.5 129t-32.5 173z" />
<glyph unicode="d" horiz-adv-x="905" d="M47 344q0 81 28.5 160t78 140.5t123.5 99.5t159 38q61 0 115.5 -25.5t87.5 -58.5v617q0 43 -11.5 58.5t-47.5 15.5h-56v20h238v-1389h106v-20h-229v102q-32 -38 -114.5 -80t-139.5 -42q-150 0 -244 106.5t-94 257.5zM182 391q0 -94 28 -172.5t90.5 -131t150.5 -52.5 q56 0 107 26.5t81 61.5v555q-39 37 -78 57.5t-92 20.5q-47 0 -96 -23.5t-92.5 -67t-71 -115.5t-27.5 -159z" />
<glyph unicode="e" horiz-adv-x="755" d="M47 385q0 164 101 279.5t262 115.5q95 0 167 -42.5t105 -125.5q33 -81 33 -151h-539v-33q0 -65 17 -134t49.5 -132t89 -103.5t127.5 -40.5q75 0 129.5 36.5t101.5 105.5l15 -10q-42 -74 -119 -122t-160 -48q-177 0 -278 113t-101 292zM176 481h422q-4 48 -14 91t-30 89 t-56.5 73.5t-85.5 27.5q-126 0 -178.5 -74t-57.5 -207z" />
<glyph unicode="f" horiz-adv-x="483" d="M29 0v20h55q35 0 42 8t7 42v860q0 95 25 176.5t66 138.5t94.5 97.5t110.5 59.5t114 19q28 0 55.5 -5t54.5 -16t43.5 -33t16.5 -52q0 -27 -18.5 -48.5t-45.5 -21.5q-25 0 -44 18.5t-19 43.5q0 34 30 57q-25 41 -88 41q-65 0 -114.5 -24.5t-78.5 -63t-47.5 -93t-25 -106.5 t-6.5 -112v-246h174v-21h-119q-35 0 -45 -13t-10 -50v-656h156v-20h-383z" />
<glyph unicode="g" horiz-adv-x="819" d="M55 -395q0 128 185 229q-77 14 -128 64.5t-51 113.5q0 44 12 82t36 69.5t44.5 52t51.5 46.5q-56 38 -88.5 101.5t-32.5 132.5q0 122 92 204t215 82q144 0 203 -127q27 46 66 79.5t81 33.5q33 0 57.5 -19t24.5 -51q0 -26 -17 -41.5t-44 -15.5q-20 0 -35.5 14.5t-15.5 34.5 q0 28 32 53q-11 7 -18 7q-29 0 -55.5 -25.5t-26.5 -54.5q0 -11 24.5 -74t24.5 -117q0 -114 -84 -189t-200 -75q-51 0 -99.5 22.5t-58.5 22.5q-6 0 -11.5 -1.5t-9.5 -3.5t-10.5 -6.5t-8.5 -6.5t-9 -8t-8 -7q-66 -62 -66 -133q0 -60 46.5 -91.5t123.5 -31.5q47 0 140.5 12.5 t140.5 12.5q133 0 214.5 -64t81.5 -194q0 -75 -36 -143t-93.5 -116t-128.5 -78.5t-143 -37.5q-20 -2 -65 -2q-64 0 -122 11.5t-112 37.5t-86.5 76t-32.5 119zM174 -354q0 -118 89 -185t212 -67q140 0 232 86t92 225q0 168 -277 168q-26 0 -84 -4q-40 -4 -101 -17t-81 -26 q-82 -54 -82 -180zM203 504q0 -66 21.5 -126t70.5 -102.5t117 -42.5q43 0 77.5 28t54 70t30 86t10.5 83q0 50 -9.5 94t-30.5 83.5t-59.5 63t-91.5 23.5q-50 0 -88 -23.5t-59.5 -62.5t-32 -83t-10.5 -91z" />
<glyph unicode="h" horiz-adv-x="903" d="M35 0v20h43q35 0 45 8.5t10 41.5v1239q0 31 -3 47t-15 23.5t-23.5 8.5t-42.5 1h-14v20h221v-774q55 60 146.5 105.5t168.5 45.5q201 0 201 -282v-484h92v-20h-317v20h51q30 0 40.5 14t10.5 50v403q0 46 -2 75.5t-11.5 65t-27 55.5t-50.5 34t-79 14q-44 0 -87 -19 t-66.5 -38t-69.5 -60v-594h90v-20h-311z" />
<glyph unicode="i" horiz-adv-x="403" d="M47 0v20h51q28 0 37.5 11t9.5 47v571v30.5t-2.5 23t-8 21t-16 10.5t-26.5 5h-45v21h221v-740h90v-20h-311zM117 1178q0 32 23 54.5t55 22.5t54.5 -22.5t22.5 -54.5t-22.5 -55t-54.5 -23t-55 23t-23 55z" />
<glyph unicode="j" horiz-adv-x="389" d="M-127 -487q0 35 20.5 56t45.5 21q61 0 61 -61q0 -43 -57 -66q1 -1 4 -7.5t4.5 -9t6.5 -8.5t9 -9.5t11 -8t14.5 -6.5t18.5 -4t24 -2q51 0 83 52.5t34 115.5q0 12 -4.5 120t-4.5 152v803q0 5 0.5 17.5t0 18t-1.5 16t-3.5 15.5t-7 10.5t-12 8t-17.5 2.5h-67v21h231v-821 q0 -316 -84 -451q-20 -33 -63.5 -63.5t-83.5 -30.5q-64 0 -113 36t-49 83zM117 1188q0 32 23 55t55 23t54.5 -23t22.5 -55t-22.5 -55t-54.5 -23t-55 23t-23 55z" />
<glyph unicode="k" horiz-adv-x="792" d="M35 0v20h45q32 0 42.5 9t10.5 41v1245q0 44 -10.5 59t-46.5 15h-41v20h221v-981l305 311h-104v21h266v-21h-133l-244 -247l426 -472h57v-20h-311v20h98l-360 396v-396h90v-20h-311z" />
<glyph unicode="l" horiz-adv-x="389" d="M37 0v20h51q27 0 37 9.5t10 40.5v1220q0 61 -8.5 80t-42.5 19h-47v20h221v-1389h90v-20h-311z" />
<glyph unicode="m" horiz-adv-x="1331" d="M37 0v20h37q39 0 54 10t15 40v581q0 48 -12.5 68t-54.5 20h-39v21h229v-125q43 43 123.5 94t138.5 51q87 0 138 -37t57 -106q85 72 145 106.5t129 34.5q116 0 159.5 -58t43.5 -198v-502h96v-20h-325v20q77 0 87 3q19 8 19 34v420q0 244 -123 244q-51 0 -101.5 -20 t-125.5 -85v-596h88v-20h-309v20h25h21t15.5 0.5t13.5 2l9 4.5t7 7t3.5 10.5t3 14.5t0.5 19v399q0 53 -3.5 90.5t-14.5 75.5t-35.5 58t-61.5 20q-46 0 -90.5 -19t-132.5 -88v-594h92v-20h-321z" />
<glyph unicode="n" horiz-adv-x="897" d="M45 0v20h45q35 0 44 9.5t9 40.5v581q0 22 -0.5 32t-3 23.5t-8.5 19t-16.5 9.5t-26.5 4h-43v21h221v-125q45 45 129 97t150 52q68 0 112 -17.5t67.5 -56t32.5 -87t9 -121.5v-482h96v-20h-332v20h72q26 0 33.5 10t7.5 48v379q0 51 -1 79t-5.5 64.5t-13.5 55.5t-25 37.5 t-41.5 26t-60.5 7.5q-26 0 -46.5 -3.5t-71.5 -30.5t-112 -79v-594h86v-20h-307z" />
<glyph unicode="o" d="M47 373q0 104 55.5 199.5t146 153.5t189.5 58q96 0 174 -33.5t126.5 -90.5t74 -129t25.5 -152q0 -100 -51 -192t-148 -152t-215 -60q-157 0 -267 114t-110 284zM182 383q0 -170 77.5 -279.5t172.5 -109.5q63 0 111.5 23.5t78.5 61.5t49 90.5t26.5 104.5t7.5 109 q0 168 -76 275.5t-193 107.5q-64 0 -114.5 -35t-80 -92t-44.5 -122.5t-15 -133.5z" />
<glyph unicode="p" horiz-adv-x="905" d="M35 -602h45q19 0 26.5 0.5t15 5.5t9.5 14.5t2 28.5v1247q0 26 -8 35.5t-35 9.5h-55v21h221v-90q158 118 266 118q70 0 127.5 -21.5t95.5 -58t64 -85t37.5 -100.5t11.5 -107q0 -188 -101.5 -310t-260.5 -122q-59 0 -112.5 19t-127.5 75v-680h131v-21h-352v21zM256 100 q114 -90 201 -90h4q71 0 123 34q54 35 82.5 91t41.5 113t13 114q0 72 -12.5 136.5t-39.5 122.5t-77 92.5t-117 34.5q-52 0 -111 -29.5t-108 -73.5v-545z" />
<glyph unicode="q" horiz-adv-x="886" d="M45 358q0 182 120 303t302 121q83 0 176 -41l121 50v-1393h98v-21h-354v21h78q36 0 45.5 11t9.5 42v629q-39 -50 -99.5 -76.5t-125.5 -26.5q-100 0 -186 52.5t-135.5 140.5t-49.5 188zM182 371q0 -82 31 -162.5t96.5 -138.5t149.5 -58q53 0 102 25t80 67v617 q-70 43 -178 43q-77 0 -143.5 -61t-102 -151t-35.5 -181z" />
<glyph unicode="r" horiz-adv-x="608" d="M45 0v20h49q29 0 39 11t10 47v571q0 54 -9.5 72t-39.5 18h-49v21h221v-137q71 80 129 118.5t129 38.5q40 0 63 -21t23 -59q0 -33 -17 -55t-46 -22t-48.5 16.5t-19.5 48.5q0 17 9.5 33t23.5 22q-18 9 -25 9q-47 0 -110.5 -46t-110.5 -104v-582h115v-20h-336z" />
<glyph unicode="s" horiz-adv-x="598" d="M47 27v170h23q9 -203 209 -203q73 0 119 46t46 110q0 30 -12 56.5t-37 50.5t-46.5 40t-57.5 39q-12 8 -41 27t-44 29t-39.5 28t-37.5 32t-27.5 32t-21 36.5t-6.5 38.5q0 95 63.5 160t169.5 65q69 0 121.5 -17t77.5 -38v-141h-23q-1 28 -12.5 57.5t-32.5 57.5t-56.5 45.5 t-78.5 17.5q-66 0 -104.5 -36.5t-38.5 -88.5q0 -20 14.5 -42t44.5 -46.5t52 -40t63 -41.5t51 -33q44 -29 68 -49t49 -48.5t35.5 -63.5t11.5 -80q-1 -105 -77.5 -163.5t-188.5 -58.5q-44 0 -103 13t-96 26z" />
<glyph unicode="t" horiz-adv-x="481" d="M121 180l4 756l123 51v-227h192v-21h-149q-43 0 -43 -49l-4 -514q0 -44 2.5 -70t11.5 -50t27.5 -34.5t48.5 -11.5h3q47 0 109 62l13 -11q-17 -25 -62.5 -51t-95.5 -26q-103 0 -141.5 47t-38.5 149z" />
<glyph unicode="u" horiz-adv-x="868" d="M33 739v21h221v-488q0 -35 1.5 -60t8.5 -59t20 -55.5t37.5 -37t59.5 -15.5q123 0 223 105v536q0 37 -11 45t-54 8h-45v21h233v-662q0 -53 14 -65.5t60 -12.5h18v-20h-215v125q-45 -35 -66.5 -51t-64 -43t-80.5 -39t-76 -12q-46 0 -80.5 20t-54 49.5t-31.5 72t-16 80 t-4 79.5v374q0 57 -9 70.5t-44 13.5h-45z" />
<glyph unicode="v" horiz-adv-x="768" d="M-18 739v21h360v-21h-117l215 -604l236 604h-119v21h242v-21q-27 0 -39 -0.5t-29 -5t-26 -13.5t-20 -26t-21 -43l-267 -686h-18l-256 686q-22 61 -41 74.5t-72 13.5h-28z" />
<glyph unicode="w" horiz-adv-x="1202" d="M-8 739v21h338v-21h-103l199 -620l180 477l-51 143h-68v21h297v-21h-20q-30 0 -46 -8t-16 -33q0 -16 11 -49l182 -516l203 606h-99v21h222v-21h-29q-42 0 -61 -11.5t-33 -55.5l-242 -715h-16l-226 604l-227 -604h-16l-265 741q-10 31 -25 36t-89 5z" />
<glyph unicode="x" horiz-adv-x="792" d="M0 739v21h346v-21h-108l190 -293l195 293h-134v21h277v-21h-70q-51 0 -75 -39l-181 -268l209 -326q32 -49 52 -67.5t47 -18.5h45v-20h-347v20h109l-199 306l-206 -306h135v-20h-279v20h49q49 0 71 15.5t58 68.5l162 240l-233 350q-19 27 -33 36t-39 9h-41z" />
<glyph unicode="y" horiz-adv-x="749" d="M-35 739v21h363v-21h-119l219 -602l229 602h-108v21h223v-21h-47q-8 0 -14.5 -0.5t-12 -2.5t-9 -3.5t-8 -7.5t-6.5 -8.5t-6.5 -12.5t-6.5 -15.5t-8 -20t-9 -23.5l-440 -1141q-9 -26 -18 -43.5t-13.5 -24t-17.5 -22.5q-32 -37 -66 -37q-31 0 -47 20t-16 48q0 27 18 48.5 t47 21.5q23 0 39 -18t16 -40q21 14 31 43l189 480l-265 665q-3 9 -10 26.5t-9.5 24t-9 17.5t-12 15t-15 7.5t-21.5 3.5h-60z" />
<glyph unicode="z" horiz-adv-x="665" d="M29 0l438 739h-234q-89 0 -122 -26.5t-56 -102.5h-18l20 150h553l-438 -740h295q33 0 59 11t39.5 22.5t26 38.5t15.5 37.5t11 40.5h19l-21 -170h-587z" />
<glyph unicode="{" horiz-adv-x="835" d="M102 449v10q51 13 88.5 35t60.5 55t37 64.5t20 79.5t7.5 82t1.5 89v39q0 70 8.5 139t31 142.5t57 129t92 91t129.5 35.5q60 0 111 -33.5t51 -89.5q0 -25 -16 -42.5t-44 -17.5q-23 0 -37 14.5t-14 39.5q0 19 13 34.5t30 16.5q-2 20 -26.5 38.5t-59.5 18.5 q-63 -1 -108 -19.5t-71.5 -47.5t-41.5 -74.5t-20 -90t-5 -104.5q0 -35 7.5 -146t7.5 -146q0 -121 -72 -215.5t-209 -122.5q6 0 15 -3l12 -4q126 -37 190 -124.5t64 -204.5q0 -35 -7.5 -146.5t-7.5 -146.5q0 -60 5 -104.5t20 -90t41.5 -74.5t71.5 -47.5t108 -19.5 q35 0 59.5 18.5t26.5 38.5q-17 1 -30 17t-13 35q0 23 14 38t37 15q28 0 44 -17.5t16 -42.5q0 -56 -49.5 -89t-110.5 -33q-72 0 -129.5 35.5t-92.5 90.5t-58 128t-31.5 142.5t-8.5 139.5v39q0 47 -1 76.5t-5.5 72t-12.5 70t-23.5 60.5t-38 55t-56.5 41.5t-78 30.5z" />
<glyph unicode="|" horiz-adv-x="401" d="M164 -322v1565h74v-1565h-74z" />
<glyph unicode="}" horiz-adv-x="835" d="M39 -410q0 25 15.5 42.5t43.5 17.5q23 0 37.5 -15t14.5 -38q0 -19 -13.5 -35t-30.5 -17q2 -20 27 -38.5t60 -18.5q63 1 108 19.5t71 47.5t41.5 74.5t20 90t4.5 104.5q0 35 -7 146.5t-7 146.5q0 117 64 204.5t190 124.5q6 1 15 4.5t12 4.5q-4 0 -8.5 1t-9.5 2.5t-9 2.5 q-126 37 -190 125t-64 205q0 35 7 146t7 146q0 60 -4.5 104.5t-20 90t-41.5 74.5t-71 47.5t-108 19.5q-35 0 -60 -18.5t-27 -38.5q17 -2 30.5 -17t13.5 -34q0 -25 -14.5 -39.5t-37.5 -14.5q-28 0 -43.5 17.5t-15.5 42.5q0 56 51 89.5t111 33.5q72 0 128.5 -35.5t91 -90.5 t57.5 -128.5t31.5 -143t8.5 -139.5v-20q0 -53 0.5 -80t4.5 -74t12 -74t23.5 -63t38 -58t57 -43t79.5 -32v-10q-45 -11 -79.5 -32t-57 -43t-38 -58t-23.5 -63t-12 -74t-4.5 -74t-0.5 -80v-21q0 -70 -9 -139.5t-31.5 -142.5t-57 -128t-91.5 -90.5t-128 -35.5q-60 0 -111 33 t-51 89z" />
<glyph unicode="~" horiz-adv-x="942" d="M94 1346q52 67 137 126.5t146 59.5q43 0 76 -11.5t54.5 -28t42.5 -33.5t51 -28.5t69 -11.5q97 0 172 103l18 -6q-48 -97 -110.5 -148t-122.5 -51q-31 0 -70.5 20t-72 44.5t-74 44.5t-74.5 20q-103 0 -230 -115z" />
<glyph unicode="&#xa1;" horiz-adv-x="602" d="M164 -457q17 0 29.5 5t20.5 16.5t12.5 22.5t6.5 32.5t3 35.5t1 42t1 43l26 813h68l26 -813q0 -11 1 -33.5t1.5 -33.5t1.5 -29.5t3.5 -28t6 -23.5t9.5 -21t13.5 -14t18.5 -10.5t25 -3.5v-18h-274v18zM217 739q0 32 23 55t55 23t55 -23t23 -55t-23 -54.5t-55 -22.5 t-55 22.5t-23 54.5z" />
<glyph unicode="&#xa2;" horiz-adv-x="802" d="M61 588q0 162 113 276t268 123v301h23v-301q96 -2 174 -40.5t78 -88.5q0 -29 -19.5 -50.5t-48.5 -21.5q-26 0 -44.5 19t-18.5 45q0 38 35 63q-61 58 -156 58v-750h20q66 0 125.5 44t94.5 97l16 -10q-11 -18 -31.5 -41.5t-53 -52t-78 -50t-93.5 -26.5v-348h-23v346h-6 q-71 0 -137.5 28t-119.5 78t-85.5 129t-32.5 173zM199 633q0 -162 71 -273.5t172 -134.5v744q-100 -11 -171.5 -107.5t-71.5 -228.5z" />
<glyph unicode="&#xa3;" horiz-adv-x="782" d="M61 0v20h60q32 0 38.5 8t6.5 42v737q0 96 24.5 177.5t65.5 138t94.5 97t110.5 59.5t114 19q26 0 51.5 -4.5t54 -14.5t46.5 -32.5t18 -54.5q0 -26 -18.5 -48t-46.5 -22q-25 0 -44.5 19.5t-17.5 42.5q2 33 31 57q-11 18 -35 29.5t-53 11.5q-61 0 -108.5 -21.5t-78 -57.5 t-50 -88t-27.5 -108.5t-8 -123.5v-205h215v-25h-160q-34 0 -44.5 -12.5t-10.5 -50.5v-570h463v-20h-691z" />
<glyph unicode="&#xa4;" horiz-adv-x="1042" d="M61 596q0 127 35.5 229.5t93 167.5t135 109t157 62t163.5 18q65 0 164.5 -22.5t140.5 -37.5q6 -162 6 -207l-16 -2q-11 76 -38 125t-71.5 74t-95.5 34t-125 9q-83 0 -157.5 -35.5t-133 -102t-92.5 -172t-34 -237.5q0 -94 16.5 -181t53 -165t90 -135.5t131.5 -91 t173 -33.5q75 0 126.5 14t84.5 46.5t52 75t34 108.5l17 -2l-6 -203q-140 -61 -314 -61q-115 0 -222.5 45.5t-188.5 125t-130 196t-49 249.5zM295 528v29h545v-29h-545zM295 610v29h545v-29h-545z" />
<glyph unicode="&#xa5;" horiz-adv-x="995" d="M-45 1315v20h416v-20h-131l247 -512h146l256 512h-166v20h330v-20q-54 0 -78.5 -2t-48 -17.5t-35.5 -36.5t-37 -71l-195 -385h308v-21h-318l-65 -135v-172h301v-20h-301v-435h161v-20h-460v20h75q27 0 48 7q18 6 25 19t7 38v371h-311v20h311v127l-92 180h-301v21h291 l-178 340q-63 129 -86 149q-17 16 -40.5 19.5t-78.5 3.5zM498 782l61 -127l64 127h-125z" />
<glyph unicode="&#xa6;" horiz-adv-x="401" d="M164 -322v644h74v-644h-74zM164 598v645h74v-645h-74z" />
<glyph unicode="&#xa7;" horiz-adv-x="845" d="M82 -492q0 33 21 56.5t55 23.5q26 0 42.5 -20.5t16.5 -46.5t-17 -43t-36 -23q7 -20 36.5 -40.5t63.5 -20.5q103 0 168.5 100.5t65.5 288.5v1237h102v-1069q0 -103 -14 -185.5t-40 -141t-54 -97.5t-66 -74q-82 -76 -160 -76q-79 0 -131.5 37.5t-52.5 93.5zM205 -279v1074 q0 103 14 185.5t40 140.5t54 97t66 74q37 35 87.5 55.5t92.5 20.5q83 0 133.5 -28.5t50.5 -82.5q0 -33 -20.5 -56t-54.5 -23q-27 0 -43.5 20.5t-16.5 46.5t17.5 43t36.5 23q-6 17 -35 29t-66 12t-70 -11t-67.5 -40.5t-59.5 -76t-41 -124.5t-16 -178v-1201h-102z" />
<glyph unicode="&#xa8;" horiz-adv-x="546" d="M33 995q0 28 19.5 47t47.5 19t47 -19t19 -47t-19 -47.5t-47 -19.5t-47.5 19.5t-19.5 47.5zM381 995q0 28 20 47t48 19t46.5 -19t18.5 -47t-18.5 -47.5t-46.5 -19.5t-48 19.5t-20 47.5z" />
<glyph unicode="&#xa9;" horiz-adv-x="1519" d="M102 666q0 141 52 269.5t140 221.5t210 148t256 55q179 0 330.5 -93t239 -252.5t87.5 -348.5q0 -140 -52 -268.5t-139.5 -221.5t-209.5 -148t-256 -55t-256 55t-210 148t-140 221.5t-52 268.5zM152 666q0 -130 49 -252t130.5 -212.5t195 -145t235.5 -54.5q163 0 305 92 t224.5 245.5t82.5 326.5q0 174 -83.5 327.5t-226 245.5t-306.5 92q-163 0 -303.5 -92t-221.5 -245t-81 -328zM410 670q0 80 24.5 146t64.5 109.5t93 73.5t109 43t114 13q56 0 110.5 -10.5t81.5 -20.5l27 -10l6 -144h-20q-33 81 -82 123.5t-139 42.5q-129 0 -193.5 -97.5 t-64.5 -266.5q0 -182 76.5 -278.5t181.5 -96.5q44 0 80 11.5t56.5 24t41 40t26.5 39t21 41.5l18 -4l-24 -134q-110 -36 -223 -36q-71 0 -139 26.5t-123 74.5t-89 124t-34 166z" />
<glyph unicode="&#xab;" horiz-adv-x="792" d="M92 395q0 61 31 108.5t72.5 71.5t89.5 40t74 20t34 4v-16q-7 0 -27.5 -5.5t-53 -21.5t-61.5 -39t-50 -64t-21 -90q0 -53 19 -99t45.5 -73t56 -47t48.5 -28t26 -9v-16q-12 3 -31 8.5t-67.5 27.5t-86 49t-68 75t-30.5 104zM399 395q0 60 30.5 107.5t71 72t88 40t74.5 20 t37 4.5v-16q-9 -1 -23 -4.5t-51 -19.5t-65 -38t-51 -64t-23 -94t19 -97.5t45 -73.5t55.5 -48t49 -28.5t26.5 -8.5v-16q-12 3 -31 8.5t-67.5 27.5t-86 49t-68 75t-30.5 104z" />
<glyph unicode="&#xac;" horiz-adv-x="800" d="M100 485v103h611v-355h-103v252h-508z" />
<glyph unicode="&#xad;" horiz-adv-x="561" d="M82 369v73h397v-73h-397z" />
<glyph unicode="&#xae;" horiz-adv-x="1484" d="M92 633q0 133 51 253.5t138 207.5t207 138.5t253 51.5q177 0 327 -87t237.5 -237t87.5 -327t-87.5 -326.5t-237.5 -236t-327 -86.5q-133 0 -253 51t-207 138t-138 207t-51 253zM152 633q0 -161 78.5 -297t214 -214.5t296.5 -78.5t297.5 78.5t215.5 214.5t79 297 t-79 297.5t-215.5 215.5t-297.5 79q-121 0 -230 -46.5t-187.5 -126t-125 -189t-46.5 -230.5zM461 295v20h18q32 3 45 24t13 75v477q0 53 -14 67.5t-62 14.5v20h262q111 0 167 -45.5t56 -128.5q0 -27 -9 -50.5t-24.5 -40.5t-32.5 -30.5t-37.5 -23.5t-35 -15.5t-29.5 -10 t-16 -5.5q30 -9 85 -38.5t64 -51.5q6 -13 19 -59.5t26 -79t49 -63.5t89 -34v-20q-80 -8 -95 -8q-131 0 -155 172q-11 80 -59.5 126t-137.5 46h-12v-240q0 -41 11 -58t44 -20h23v-20h-252zM635 655h22q199 0 199 172q0 83 -51 113.5t-170 30.5v-316z" />
<glyph unicode="&#xaf;" horiz-adv-x="571" d="M129 1012v41h459v-41h-459z" />
<glyph unicode="&#xb0;" horiz-adv-x="290" d="M41 1118q0 43 30.5 74t73.5 31t74 -31t31 -74t-31 -73.5t-74 -30.5t-73.5 30.5t-30.5 73.5zM72 1118q0 -31 21 -52.5t52 -21.5t52.5 21.5t21.5 52.5t-21.5 52.5t-52.5 21.5t-52 -21.5t-21 -52.5z" />
<glyph unicode="&#xb1;" horiz-adv-x="907" d="M82 -496q0 33 21 56.5t55 23.5q26 0 42.5 -20.5t16.5 -46.5t-17 -43t-36 -23q7 -20 36.5 -40.5t63.5 -20.5q15 0 23 2v1403q0 103 14 185.5t40 140.5t54 97t66 74q82 76 160 76q79 0 131.5 -37.5t52.5 -93.5q0 -33 -21 -56.5t-55 -23.5q-26 0 -42.5 20.5t-16.5 47.5 q0 26 17 42.5t36 22.5q-7 20 -36.5 41t-63.5 21q-15 0 -23 -2v-1403q0 -103 -14 -185.5t-40 -141t-54 -97.5t-66 -74q-82 -76 -160 -76q-79 0 -131.5 37.5t-52.5 93.5zM389 -553q15 15 25 35q84 159 84 338v1474q-16 -16 -25 -34q-84 -159 -84 -359v-1454z" />
<glyph unicode="&#xb4;" horiz-adv-x="452" d="M94 893l109 393h63l41 -41l-198 -356z" />
<glyph unicode="&#xb6;" horiz-adv-x="1079" d="M123 979q0 79 26 147.5t79 123.5t143 86.5t207 31.5h460v-20h-63q-68 0 -94.5 -28t-26.5 -120v-1249q0 -103 -14 -185.5t-40 -141t-54 -97.5t-66 -74q-82 -76 -160 -76q-79 0 -131.5 37.5t-52.5 93.5q0 33 21 56.5t55 23.5q27 0 43 -19.5t16 -47.5q0 -26 -17 -43t-36 -23 q7 -20 36.5 -40.5t63.5 -20.5q44 0 87 26t63 66q42 77 52.5 154.5t10.5 277.5v635q-89 -27 -141 -27q-84 0 -166 30.5t-149.5 86t-109.5 143.5t-42 193z" />
<glyph unicode="&#xb7;" horiz-adv-x="401" d="M123 401q0 32 23 55t55 23t55 -23t23 -55t-23 -54.5t-55 -22.5t-55 22.5t-23 54.5z" />
<glyph unicode="&#xb8;" horiz-adv-x="1288" d="M645 -334l12 10q26 -30 86 -30q37 0 55.5 19.5t18.5 51.5q0 28 -46 88t-46 84q0 22 18.5 57.5t38.5 55.5h25l-19 -22q-36 -50 -36 -93q0 -16 19.5 -41t43 -47.5t43 -51t19.5 -50.5q0 -45 -35.5 -72.5t-81.5 -27.5q-65 0 -115 69z" />
<glyph unicode="&#xba;" horiz-adv-x="1165" d="M47 373q0 104 55.5 199.5t146 153.5t189.5 58q118 0 205 -49q79 45 176 45q95 0 167.5 -42.5t105.5 -125.5q32 -78 32 -151h-293q7 -40 7 -80q0 -80 -35 -158.5t-96 -136.5q71 -68 161 -68q136 0 232 142l14 -10q-42 -74 -118.5 -122t-159.5 -48q-118 0 -203 51 q-91 -56 -205 -56q-157 0 -269 114t-112 284zM182 377q0 -169 78 -276t174 -107q102 0 164 59q-69 54 -105 140t-36 192q0 94 35.5 176t101.5 137q-71 68 -160 68q-64 0 -114 -36t-79 -94t-44 -124.5t-15 -134.5zM586 428q0 -71 19 -147t57 -136q43 97 43 234q0 31 -9 102 q-18 110 -71 181q-36 -65 -39 -181v-53zM672 717q120 -80 153 -236h183q-4 48 -14.5 91t-30 89t-56.5 73.5t-86 27.5q-95 0 -149 -45z" />
<glyph unicode="&#xbb;" horiz-adv-x="792" d="M92 133v17q4 1 12 2.5t30 8.5t42 16.5t44.5 27.5t42.5 39.5t30 54t12 70.5q0 52 -18.5 97.5t-45 73.5t-55.5 48t-48.5 28.5t-26.5 8.5v16q6 -1 16 -4t39.5 -13.5t56 -23.5t59 -35.5t56 -48t39.5 -62t16 -77.5q0 -60 -30.5 -107.5t-71 -72t-88 -40t-74.5 -20t-37 -4.5z M399 133v17q7 0 27.5 5.5t53 21.5t61.5 38.5t50 63.5t21 90q0 53 -19 99t-45 73t-56 47t-48.5 28t-25.5 9v16q6 -1 16 -4t39.5 -13.5t56 -23.5t59 -35.5t56 -48t39.5 -62t16 -77.5q0 -61 -31 -108.5t-72.5 -71.5t-89.5 -40t-74 -20t-34 -4z" />
<glyph unicode="&#xbf;" horiz-adv-x="626" d="M61 23q0 58 18 104.5t47 76.5t64 56t70 48t64 45.5t47 56t18 73.5v92h27q33 -91 33 -169q0 -42 -15 -72q-12 -23 -53 -41.5t-89.5 -35t-95.5 -40t-78.5 -68t-31.5 -106.5q0 -88 51 -153.5t132 -101t188 -48.5l88 -2v-191h-27q-1 21 -4 33.5t-11.5 18.5t-15.5 7.5t-26 3.5 t-31 5q-88 17 -152.5 45.5t-115 76t-76 119t-25.5 167.5zM322 766q0 32 22.5 55t54.5 23t55 -23t23 -55t-23 -55t-55 -23t-54.5 23t-22.5 55z" />
<glyph unicode="&#xc0;" horiz-adv-x="1261" d="M-20 0v20q98 0 135 16.5t63 84.5l477 1243h13l401 -1196q10 -29 17.5 -49t17.5 -36.5t17 -26t21.5 -17.5t23.5 -11t31 -5.5t37.5 -2.5h47.5v-20h-479v20h162l-152 488h-459l-192 -488h194v-20h-376zM360 528h445l-213 621zM438 1556l41 50l371 -170l-6 -15l-400 78z" />
<glyph unicode="&#xc1;" horiz-adv-x="1261" d="M-20 0v20q98 0 135 16.5t63 84.5l477 1243h13l401 -1196q10 -29 17.5 -49t17.5 -36.5t17 -26t21.5 -17.5t23.5 -11t31 -5.5t37.5 -2.5h47.5v-20h-479v20h162l-152 488h-459l-192 -488h194v-20h-376zM360 528h445l-213 621zM479 1436l371 170l41 -50l-6 -57l-400 -78z" />
<glyph unicode="&#xc2;" horiz-adv-x="1261" d="M-20 0v20q98 0 135 16.5t63 84.5l477 1243h13l401 -1196q10 -29 17.5 -49t17.5 -36.5t17 -26t21.5 -17.5t23.5 -11t31 -5.5t37.5 -2.5h47.5v-20h-479v20h162l-152 488h-459l-192 -488h194v-20h-376zM360 528h445l-213 621zM381 1288l268 228h15l264 -228l-17 -8l-247 162 h-15l-252 -162z" />
<glyph unicode="&#xc3;" horiz-adv-x="1261" d="M-20 0v20q98 0 135 16.5t63 84.5l477 1243h13l401 -1196q10 -29 17.5 -49t17.5 -36.5t17 -26t21.5 -17.5t23.5 -11t31 -5.5t37.5 -2.5h47.5v-20h-479v20h162l-152 488h-459l-192 -488h194v-20h-376zM330 1460q80 127 221 127q47 0 130.5 -41t131.5 -41q40 0 62 16.5 t40 57.5h17q-19 -63 -70.5 -99t-111.5 -36q-45 0 -134.5 44t-134.5 44q-79 0 -133 -72h-18zM360 528h445l-213 621z" />
<glyph unicode="&#xc4;" horiz-adv-x="1261" d="M-20 0v20q98 0 135 16.5t63 84.5l477 1243h13l401 -1196q10 -29 17.5 -49t17.5 -36.5t17 -26t21.5 -17.5t23.5 -11t31 -5.5t37.5 -2.5h47.5v-20h-479v20h162l-152 488h-459l-192 -488h194v-20h-376zM299 1364q0 28 20 47t48 19t46.5 -19t18.5 -47t-19 -48t-46 -20 q-28 0 -48 20t-20 48zM360 528h445l-213 621zM834 1364q0 28 19.5 47t47.5 19t47 -19t19 -47t-19 -48t-47 -20t-47.5 20t-19.5 48z" />
<glyph unicode="&#xc5;" horiz-adv-x="1261" d="M-20 0v20q98 0 135 16.5t63 84.5l477 1243h13l401 -1196q10 -29 17.5 -49t17.5 -36.5t17 -26t21.5 -17.5t23.5 -11t31 -5.5t37.5 -2.5h47.5v-20h-479v20h162l-152 488h-459l-192 -488h194v-20h-376zM360 528h445l-213 621zM508 1520q0 56 40 95.5t95 39.5t95 -39.5 t40 -95.5t-40 -96t-95 -40t-95 40t-40 96zM535 1520q0 -44 32 -76.5t76 -32.5t76.5 32.5t32.5 76.5t-32.5 76t-76.5 32t-76 -32t-32 -76z" />
<glyph unicode="&#xc6;" horiz-adv-x="1437" d="M-41 0v20h59q59 3 88 23.5t52 77.5l407 1061v86q0 37 -14 58.5t-57 21.5h-76v20h882v-227h-22q-11 109 -55 158t-138 49h-376v-652h315q70 0 82 22t12 152h21v-331h-21v137h-321q-36 0 -62 -17.5t-26 -60.5v-578h465q106 0 146.5 47.5t45.5 155.5h20v-223h-968v20h41 q61 0 83.5 17.5t22.5 79.5v391h-231l-193 -488h195v-20h-377zM340 528h225v602z" />
<glyph unicode="&#xc7;" horiz-adv-x="1269" d="M61 705q0 150 44.5 270t116.5 197t169 128.5t196 73t204 21.5q82 0 208.5 -27t171.5 -45q9 -189 9 -242l-21 -2q-14 89 -47 147.5t-88.5 90t-120 43.5t-155.5 12q-104 0 -197.5 -43t-166.5 -123t-116 -206t-43 -281q0 -111 21 -213t67 -194.5t112.5 -161t164.5 -108.5 t217 -40q93 0 157 17t105.5 56t65.5 89.5t43 128.5l20 -2l-8 -240q-180 -71 -391 -71h-11q-36 -50 -36 -93q0 -16 19.5 -41t43 -47.5t43 -51t19.5 -50.5q0 -45 -35.5 -72.5t-81.5 -27.5q-65 0 -115 69l12 10q26 -30 86 -30q37 0 55.5 19.5t18.5 51.5q0 28 -46 88t-46 84 q0 36 39 93q-139 6 -267 62t-224.5 149t-154 226.5t-57.5 285.5z" />
<glyph unicode="&#xc8;" horiz-adv-x="1097" d="M78 0v20h31q67 0 91.5 16.5t24.5 80.5v1151q0 37 -14 58.5t-57 21.5h-76v20h883v-227h-21q-11 108 -55.5 157.5t-159.5 49.5h-356v-652h315q70 0 82 22t12 152h21v-331h-21v137h-321q-34 0 -61 -18t-27 -54v-584h434q68 0 109.5 10t65.5 36.5t33.5 59.5t16.5 93h19v-219 h-969zM322 1573l40 49l371 -170l-6 -14l-399 78z" />
<glyph unicode="&#xc9;" horiz-adv-x="1097" d="M78 0v20h31q67 0 91.5 16.5t24.5 80.5v1151q0 37 -14 58.5t-57 21.5h-76v20h883v-227h-21q-11 108 -55.5 157.5t-159.5 49.5h-356v-652h315q70 0 82 22t12 152h21v-331h-21v137h-321q-34 0 -61 -18t-27 -54v-584h434q68 0 109.5 10t65.5 36.5t33.5 59.5t16.5 93h19v-219 h-969zM455 1436l370 170l41 -50l-6 -57l-399 -78z" />
<glyph unicode="&#xca;" horiz-adv-x="1097" d="M78 0v20h31q67 0 91.5 16.5t24.5 80.5v1151q0 37 -14 58.5t-57 21.5h-76v20h883v-227h-21q-11 108 -55.5 157.5t-159.5 49.5h-356v-652h315q70 0 82 22t12 152h21v-331h-21v137h-321q-34 0 -61 -18t-27 -54v-584h434q68 0 109.5 10t65.5 36.5t33.5 59.5t16.5 93h19v-219 h-969zM293 1432l268 227h14l265 -227l-17 -9l-248 162h-14l-252 -162z" />
<glyph unicode="&#xcb;" horiz-adv-x="1097" d="M78 0v20h31q67 0 91.5 16.5t24.5 80.5v1151q0 37 -14 58.5t-57 21.5h-76v20h883v-227h-21q-11 108 -55.5 157.5t-159.5 49.5h-356v-652h315q70 0 82 22t12 152h21v-331h-21v137h-321q-34 0 -61 -18t-27 -54v-584h434q68 0 109.5 10t65.5 36.5t33.5 59.5t16.5 93h19v-219 h-969zM221 1487q0 27 20 46t48 19t46.5 -18.5t18.5 -46.5t-19 -48t-46 -20q-28 0 -48 20t-20 48zM807 1487q0 28 19.5 46.5t47.5 18.5t47 -18.5t19 -46.5t-19 -48t-47 -20t-47.5 20t-19.5 48z" />
<glyph unicode="&#xcc;" horiz-adv-x="593" d="M92 0v20h14q81 0 100 13t19 76v1148q0 36 -2 52t-12.5 27.5t-32.5 11.5h-86v20h400v-20h-123v-1328h123v-20h-400zM96 1573l41 49l361 -180l-4 -15l-392 89z" />
<glyph unicode="&#xcd;" horiz-adv-x="593" d="M92 0v20h14q81 0 100 13t19 76v1148q0 36 -2 52t-12.5 27.5t-32.5 11.5h-86v20h400v-20h-123v-1328h123v-20h-400zM96 1452l344 170l37 -49l-6 -57l-371 -78z" />
<glyph unicode="&#xce;" horiz-adv-x="593" d="M82 1405l207 186h14l195 -186l-17 -8l-178 121h-14l-191 -121zM92 0v20h14q81 0 100 13t19 76v1148q0 36 -2 52t-12.5 27.5t-32.5 11.5h-86v20h400v-20h-123v-1328h123v-20h-400z" />
<glyph unicode="&#xcf;" horiz-adv-x="593" d="M88 1507q0 28 20 47t48 19t46.5 -19t18.5 -47t-18.5 -47.5t-46.5 -19.5t-48 19.5t-20 47.5zM92 0v20h14q81 0 100 13t19 76v1148q0 36 -2 52t-12.5 27.5t-32.5 11.5h-86v20h400v-20h-123v-1328h123v-20h-400zM375 1507q0 28 19.5 47t47.5 19t47 -19t19 -47t-19 -47.5 t-47 -19.5t-47.5 19.5t-19.5 47.5z" />
<glyph unicode="&#xd0;" horiz-adv-x="1390" d="M68 0v20q28 0 42 0.5t34 2t30 5.5t21.5 10.5t17 17t9 26t3.5 35.5v524h-157v21h157v589q0 28 -7 46t-16.5 28t-32 15t-39 6t-52.5 2h-10v20h563q95 0 188.5 -21t187 -72t164 -126t114.5 -193t44 -264q0 -138 -37 -253t-101 -195t-149.5 -136t-182 -82t-200.5 -26h-591z M369 20h297q81 0 152 21t135 70.5t110 124t73 187.5t27 255q0 144 -28.5 259t-77.5 191t-119.5 126t-149.5 72t-172 22h-247v-686h225v-21h-225v-621z" />
<glyph unicode="&#xd1;" horiz-adv-x="1361" d="M49 1348v20h330l758 -1116v1036q0 26 -5 36.5t-28 17t-74 6.5h-47v20h311v-20h-137v-1379h-6l-918 1352v-1301h181v-20h-353v20h31q71 2 97 17.5t26 75.5v1114q0 43 -8 68t-28.5 36.5t-40 14t-58.5 2.5h-31zM408 1462q80 127 221 127q47 0 130.5 -41t131.5 -41 q40 0 62 16.5t40 57.5h17q-19 -63 -71 -99t-112 -36q-45 0 -134 44t-134 44q-79 0 -133 -72h-18z" />
<glyph unicode="&#xd2;" horiz-adv-x="1515" d="M61 692q0 128 42 241.5t112.5 195.5t161.5 141.5t190.5 89t196.5 29.5q139 0 265.5 -51.5t220 -140.5t149 -216.5t55.5 -273.5q0 -133 -43.5 -252.5t-116.5 -205t-165.5 -149t-192.5 -94.5t-197 -31q-95 0 -190.5 29.5t-183.5 90t-155.5 144.5t-108 201.5t-40.5 251.5z M225 688q0 -332 147 -510t392 -178q103 0 198.5 50.5t168 140.5t116 224t43.5 290q0 147 -41.5 272t-112.5 209.5t-167 132t-203 47.5q-149 0 -273.5 -89t-196 -245t-71.5 -344zM537 1556l41 50l370 -170l-6 -15l-399 78z" />
<glyph unicode="&#xd3;" horiz-adv-x="1515" d="M61 692q0 128 42 241.5t112.5 195.5t161.5 141.5t190.5 89t196.5 29.5q139 0 265.5 -51.5t220 -140.5t149 -216.5t55.5 -273.5q0 -133 -43.5 -252.5t-116.5 -205t-165.5 -149t-192.5 -94.5t-197 -31q-95 0 -190.5 29.5t-183.5 90t-155.5 144.5t-108 201.5t-40.5 251.5z M225 688q0 -332 147 -510t392 -178q103 0 198.5 50.5t168 140.5t116 224t43.5 290q0 147 -41.5 272t-112.5 209.5t-167 132t-203 47.5q-149 0 -273.5 -89t-196 -245t-71.5 -344zM537 1436l370 170l41 -50l-6 -57l-399 -78z" />
<glyph unicode="&#xd4;" horiz-adv-x="1515" d="M61 692q0 128 42 241.5t112.5 195.5t161.5 141.5t190.5 89t196.5 29.5q139 0 265.5 -51.5t220 -140.5t149 -216.5t55.5 -273.5q0 -133 -43.5 -252.5t-116.5 -205t-165.5 -149t-192.5 -94.5t-197 -31q-95 0 -190.5 29.5t-183.5 90t-155.5 144.5t-108 201.5t-40.5 251.5z M225 688q0 -332 147 -510t392 -178q103 0 198.5 50.5t168 140.5t116 224t43.5 290q0 147 -41.5 272t-112.5 209.5t-167 132t-203 47.5q-149 0 -273.5 -89t-196 -245t-71.5 -344zM432 1411l330 207h14l326 -207l-17 -8l-309 141h-14l-313 -141z" />
<glyph unicode="&#xd5;" horiz-adv-x="1515" d="M61 692q0 128 42 241.5t112.5 195.5t161.5 141.5t190.5 89t196.5 29.5q139 0 265.5 -51.5t220 -140.5t149 -216.5t55.5 -273.5q0 -133 -43.5 -252.5t-116.5 -205t-165.5 -149t-192.5 -94.5t-197 -31q-95 0 -190.5 29.5t-183.5 90t-155.5 144.5t-108 201.5t-40.5 251.5z M225 688q0 -332 147 -510t392 -178q103 0 198.5 50.5t168 140.5t116 224t43.5 290q0 147 -41.5 272t-112.5 209.5t-167 132t-203 47.5q-149 0 -273.5 -89t-196 -245t-71.5 -344zM440 1462q80 127 222 127q47 0 130.5 -41t131.5 -41q40 0 62 16.5t40 57.5h16 q-19 -63 -70.5 -99t-111.5 -36q-45 0 -134 44t-134 44q-79 0 -133 -72h-19z" />
<glyph unicode="&#xd6;" horiz-adv-x="1515" d="M61 692q0 128 42 241.5t112.5 195.5t161.5 141.5t190.5 89t196.5 29.5q139 0 265.5 -51.5t220 -140.5t149 -216.5t55.5 -273.5q0 -133 -43.5 -252.5t-116.5 -205t-165.5 -149t-192.5 -94.5t-197 -31q-95 0 -190.5 29.5t-183.5 90t-155.5 144.5t-108 201.5t-40.5 251.5z M225 688q0 -332 147 -510t392 -178q103 0 198.5 50.5t168 140.5t116 224t43.5 290q0 147 -41.5 272t-112.5 209.5t-167 132t-203 47.5q-149 0 -273.5 -89t-196 -245t-71.5 -344zM254 1405q0 27 20 46t48 19t46.5 -18.5t18.5 -46.5t-19 -48t-46 -20q-28 0 -48 20t-20 48z M1155 1405q0 27 20 46t48 19t46.5 -18.5t18.5 -46.5t-19 -48t-46 -20q-28 0 -48 20t-20 48z" />
<glyph unicode="&#xd7;" horiz-adv-x="907" d="M102 326l273 272l-269 268l72 72l268 -268l269 268l71 -72l-268 -268l287 -287l-72 -73l-287 288l-272 -272z" />
<glyph unicode="&#xd8;" horiz-adv-x="1515" d="M61 692q0 128 42 241.5t112.5 195.5t161.5 141.5t190.5 89t196.5 29.5q159 0 309 -72l144 256l18 -8l-143 -256q166 -87 264 -245t98 -357q0 -133 -43.5 -252.5t-116.5 -205t-165.5 -149t-192.5 -94.5t-197 -31q-171 0 -336 95l-133 -238l-18 8l133 240q-146 94 -235 250 t-89 362zM225 688q0 -374 189 -557l633 1139q-129 96 -281 96q-149 0 -273.5 -89t-196 -245t-71.5 -344zM430 117q132 -117 334 -117q103 0 198.5 50.5t168 140.5t116 224t43.5 290q0 180 -60.5 322.5t-166.5 229.5z" />
<glyph unicode="&#xd9;" horiz-adv-x="1425" d="M35 1348v20h518v-20h-205v-713q0 -141 22 -251t60 -181.5t92.5 -117.5t115.5 -65.5t134 -19.5q60 0 119.5 19t121.5 67t108.5 120t76 188t29.5 261v605q0 57 -34 72.5t-126 15.5h-59v20h389v-20h-150v-670q0 -321 -128 -509.5t-347 -188.5q-73 0 -148 17.5t-151.5 60 t-135 105t-95.5 161.5t-37 221v696q0 65 -25.5 86t-93.5 21h-51zM496 1597l41 50l370 -293l-6 -15l-399 201z" />
<glyph unicode="&#xda;" horiz-adv-x="1425" d="M35 1348v20h518v-20h-205v-713q0 -141 22 -251t60 -181.5t92.5 -117.5t115.5 -65.5t134 -19.5q60 0 119.5 19t121.5 67t108.5 120t76 188t29.5 261v605q0 57 -34 72.5t-126 15.5h-59v20h389v-20h-150v-670q0 -321 -128 -509.5t-347 -188.5q-73 0 -148 17.5t-151.5 60 t-135 105t-95.5 161.5t-37 221v696q0 65 -25.5 86t-93.5 21h-51zM639 1354l371 293l41 -50l-7 -57l-399 -201z" />
<glyph unicode="&#xdb;" horiz-adv-x="1425" d="M35 1348v20h518v-20h-205v-713q0 -141 22 -251t60 -181.5t92.5 -117.5t115.5 -65.5t134 -19.5q60 0 119.5 19t121.5 67t108.5 120t76 188t29.5 261v605q0 57 -34 72.5t-126 15.5h-59v20h389v-20h-150v-670q0 -321 -128 -509.5t-347 -188.5q-73 0 -148 17.5t-151.5 60 t-135 105t-95.5 161.5t-37 221v696q0 65 -25.5 86t-93.5 21h-51zM432 1411l330 207h14l326 -207l-17 -8l-309 141h-14l-313 -141z" />
<glyph unicode="&#xdc;" horiz-adv-x="1425" d="M35 1348v20h518v-20h-205v-713q0 -141 22 -251t60 -181.5t92.5 -117.5t115.5 -65.5t134 -19.5q60 0 119.5 19t121.5 67t108.5 120t76 188t29.5 261v605q0 57 -34 72.5t-126 15.5h-59v20h389v-20h-150v-670q0 -321 -128 -509.5t-347 -188.5q-73 0 -148 17.5t-151.5 60 t-135 105t-95.5 161.5t-37 221v696q0 65 -25.5 86t-93.5 21h-51zM215 1522q0 27 20 46t48 19t46.5 -18.5t18.5 -46.5t-19 -48t-46 -20q-28 0 -48 20t-20 48zM1145 1522q0 28 19.5 46.5t47.5 18.5t47 -18.5t19 -46.5t-19 -48t-47 -20t-47.5 20t-19.5 48z" />
<glyph unicode="&#xdd;" horiz-adv-x="985" d="M-45 1348v20h416v-20h-140l332 -699l330 699h-182v20h331v-20q-35 0 -56 -1t-40.5 -7.5t-29 -12.5t-23.5 -25.5t-22 -36t-25 -53.5l-266 -569v-623h159v-20h-467v20h82q82 0 82 76v520l-278 549q-12 23 -28 56.5t-22.5 46t-18 31.5t-19 25t-21.5 13.5t-30 9t-39 1.5h-25z M455 1354l370 293l41 -50l-6 -57l-399 -201z" />
<glyph unicode="&#xde;" horiz-adv-x="1062" d="M61 1348v20h447v-20h-137v-205h172q117 0 210 -32.5t149.5 -87.5t86 -124.5t29.5 -148.5q0 -83 -28.5 -156.5t-76 -126t-107 -91t-122 -57t-121.5 -18.5q-107 0 -192 29v-310h149v-20h-434v20h64q44 3 60.5 20.5t16.5 74.5v1065q0 54 -9 87.5t-31.5 51t-50.5 23.5t-75 6z M371 350q58 -26 139 -26q162 0 256 122t94 306q0 185 -97 277.5t-255 92.5h-137v-772z" />
<glyph unicode="&#xdf;" horiz-adv-x="980" d="M29 0v20h67q26 0 31.5 8.5t5.5 41.5v860q0 76 14 140t39.5 110.5t47 74.5t51.5 58q45 45 117.5 75.5t136.5 30.5q110 0 178.5 -63t68.5 -174q0 -83 -29.5 -172.5t-84.5 -157.5q-9 -11 -53.5 -61t-61.5 -72q-29 -37 -29 -74q0 -14 8.5 -30t26 -33.5t33.5 -32t43.5 -34 t42.5 -30t44 -29.5t36 -24q41 -28 57 -39t45 -36.5t40.5 -44.5t21.5 -49.5t10 -65.5q0 -59 -24 -103t-63.5 -67.5t-83 -35t-89.5 -11.5q-44 0 -103 12t-96 24l-37 11v170h21q9 -199 211 -199q72 0 119 44t47 105q0 27 -10 50t-35 46t-40.5 35t-54.5 36.5t-49 31.5 q-37 25 -58.5 41t-53 45t-47 60.5t-15.5 64.5q0 101 55 162q68 72 136 158q98 126 98 297q0 53 -14.5 94.5t-37.5 66.5t-54.5 41.5t-63.5 22.5t-68 6q-53 0 -118 -29q-80 -34 -116 -136t-36 -234v-986h125v-20h-352z" />
<glyph unicode="&#xe0;" horiz-adv-x="718" d="M57 139q0 40 14.5 72.5t42.5 56t58 40.5t73.5 30t75 21t77 17.5t65.5 14.5q4 114 4 172q0 71 -49 113.5t-121 42.5q-44 0 -97 -18.5t-73 -49.5q4 -3 15.5 -13t16.5 -15.5t13 -15t11 -18.5t3 -20q0 -27 -18 -45t-45 -18q-23 0 -42.5 17t-19.5 40t15 49q37 69 113 116.5 t153 47.5q124 0 182 -55t58 -180q0 -59 -7.5 -177t-7.5 -176q0 -94 13 -129q19 -49 65 -49q26 0 60 19l6 -11q-41 -38 -131 -38q-60 0 -87 27t-36 89q-43 -33 -60 -44.5t-52.5 -32.5t-67.5 -29t-68 -8q-62 0 -107 47.5t-45 109.5zM162 1245l41 41h63l109 -393l-15 -4z M166 176q0 -63 38 -98t101 -35q58 0 152 70q0 43 3 130t3 130q-18 -4 -62 -13t-69 -15t-61 -20.5t-55.5 -32t-34.5 -47.5t-15 -69z" />
<glyph unicode="&#xe1;" horiz-adv-x="718" d="M57 139q0 40 14.5 72.5t42.5 56t58 40.5t73.5 30t75 21t77 17.5t65.5 14.5q4 114 4 172q0 71 -49 113.5t-121 42.5q-44 0 -97 -18.5t-73 -49.5q4 -3 15.5 -13t16.5 -15.5t13 -15t11 -18.5t3 -20q0 -27 -18 -45t-45 -18q-23 0 -42.5 17t-19.5 40t15 49q37 69 113 116.5 t153 47.5q124 0 182 -55t58 -180q0 -59 -7.5 -177t-7.5 -176q0 -94 13 -129q19 -49 65 -49q26 0 60 19l6 -11q-41 -38 -131 -38q-60 0 -87 27t-36 89q-43 -33 -60 -44.5t-52.5 -32.5t-67.5 -29t-68 -8q-62 0 -107 47.5t-45 109.5zM166 176q0 -63 38 -98t101 -35q58 0 152 70 q0 43 3 130t3 130q-18 -4 -62 -13t-69 -15t-61 -20.5t-55.5 -32t-34.5 -47.5t-15 -69zM305 893l109 393h63l41 -41l-199 -356z" />
<glyph unicode="&#xe2;" horiz-adv-x="718" d="M57 139q0 40 14.5 72.5t42.5 56t58 40.5t73.5 30t75 21t77 17.5t65.5 14.5q4 114 4 172q0 71 -49 113.5t-121 42.5q-44 0 -97 -18.5t-73 -49.5q4 -3 15.5 -13t16.5 -15.5t13 -15t11 -18.5t3 -20q0 -27 -18 -45t-45 -18q-23 0 -42.5 17t-19.5 40t15 49q37 69 113 116.5 t153 47.5q124 0 182 -55t58 -180q0 -59 -7.5 -177t-7.5 -176q0 -94 13 -129q19 -49 65 -49q26 0 60 19l6 -11q-41 -38 -131 -38q-60 0 -87 27t-36 89q-43 -33 -60 -44.5t-52.5 -32.5t-67.5 -29t-68 -8q-62 0 -107 47.5t-45 109.5zM143 889l183 309h22l178 -309l-16 -8 l-166 223h-14l-170 -223zM166 176q0 -63 38 -98t101 -35q58 0 152 70q0 43 3 130t3 130q-18 -4 -62 -13t-69 -15t-61 -20.5t-55.5 -32t-34.5 -47.5t-15 -69z" />
<glyph unicode="&#xe3;" horiz-adv-x="718" d="M57 139q0 40 14.5 72.5t42.5 56t58 40.5t73.5 30t75 21t77 17.5t65.5 14.5q4 114 4 172q0 71 -49 113.5t-121 42.5q-44 0 -97 -18.5t-73 -49.5q4 -3 15.5 -13t16.5 -15.5t13 -15t11 -18.5t3 -20q0 -27 -18 -45t-45 -18q-23 0 -42.5 17t-19.5 40t15 49q37 69 113 116.5 t153 47.5q124 0 182 -55t58 -180q0 -59 -7.5 -177t-7.5 -176q0 -94 13 -129q19 -49 65 -49q26 0 60 19l6 -11q-41 -38 -131 -38q-60 0 -87 27t-36 89q-43 -33 -60 -44.5t-52.5 -32.5t-67.5 -29t-68 -8q-62 0 -107 47.5t-45 109.5zM150 920q57 127 159 127q34 0 95 -41 t96 -41q29 0 45 16.5t28 56.5h13q-14 -63 -52 -99t-81 -36q-33 0 -97.5 44t-97.5 44q-56 0 -96 -71h-12zM166 176q0 -63 38 -98t101 -35q58 0 152 70q0 43 3 130t3 130q-18 -4 -62 -13t-69 -15t-61 -20.5t-55.5 -32t-34.5 -47.5t-15 -69z" />
<glyph unicode="&#xe4;" horiz-adv-x="718" d="M57 139q0 40 14.5 72.5t42.5 56t58 40.5t73.5 30t75 21t77 17.5t65.5 14.5q4 114 4 172q0 71 -49 113.5t-121 42.5q-44 0 -97 -18.5t-73 -49.5q4 -3 15.5 -13t16.5 -15.5t13 -15t11 -18.5t3 -20q0 -27 -18 -45t-45 -18q-23 0 -42.5 17t-19.5 40t15 49q37 69 113 116.5 t153 47.5q124 0 182 -55t58 -180q0 -59 -7.5 -177t-7.5 -176q0 -94 13 -129q19 -49 65 -49q26 0 60 19l6 -11q-41 -38 -131 -38q-60 0 -87 27t-36 89q-43 -33 -60 -44.5t-52.5 -32.5t-67.5 -29t-68 -8q-62 0 -107 47.5t-45 109.5zM106 954q0 28 20 47t48 19t47 -19t19 -47 t-19 -47.5t-47 -19.5t-48 19.5t-20 47.5zM166 176q0 -63 38 -98t101 -35q58 0 152 70q0 43 3 130t3 130q-18 -4 -62 -13t-69 -15t-61 -20.5t-55.5 -32t-34.5 -47.5t-15 -69zM455 954q0 28 19.5 47t47.5 19t47 -19t19 -47t-19 -47.5t-47 -19.5t-47.5 19.5t-19.5 47.5z" />
<glyph unicode="&#xe5;" horiz-adv-x="718" d="M57 139q0 40 14.5 72.5t42.5 56t58 40.5t73.5 30t75 21t77 17.5t65.5 14.5q4 114 4 172q0 71 -49 113.5t-121 42.5q-44 0 -97 -18.5t-73 -49.5q4 -3 15.5 -13t16.5 -15.5t13 -15t11 -18.5t3 -20q0 -27 -18 -45t-45 -18q-23 0 -42.5 17t-19.5 40t15 49q37 69 113 116.5 t153 47.5q124 0 182 -55t58 -180q0 -59 -7.5 -177t-7.5 -176q0 -94 13 -129q19 -49 65 -49q26 0 60 19l6 -11q-41 -38 -131 -38q-60 0 -87 27t-36 89q-43 -33 -60 -44.5t-52.5 -32.5t-67.5 -29t-68 -8q-62 0 -107 47.5t-45 109.5zM166 176q0 -63 38 -98t101 -35q58 0 152 70 q0 43 3 130t3 130q-18 -4 -62 -13t-69 -15t-61 -20.5t-55.5 -32t-34.5 -47.5t-15 -69zM203 1028q0 56 39.5 95.5t95.5 39.5t95.5 -39.5t39.5 -95.5t-39.5 -95.5t-95.5 -39.5t-95.5 39.5t-39.5 95.5zM229 1028q0 -44 32.5 -76t76.5 -32t76 32t32 76t-32 76.5t-76 32.5 t-76.5 -32.5t-32.5 -76.5z" />
<glyph unicode="&#xe6;" horiz-adv-x="1173" d="M57 139q0 89 78 146q58 44 199 80q12 3 64.5 13t64.5 13q4 139 4 172q0 45 -18 77.5t-46 48.5t-54.5 23t-51.5 7q-47 0 -99 -19t-71 -49q3 -3 15.5 -14t20.5 -19t15.5 -21.5t7.5 -27.5q0 -27 -18 -45t-45 -18t-44.5 18t-17.5 39q0 19 15 49q42 78 118.5 122t151.5 44 q74 0 133 -27.5t86 -86.5q98 116 262 116q113 0 179.5 -50t93.5 -118q33 -85 33 -151h-539v-33q0 -102 32.5 -194.5t98 -154t149.5 -61.5q45 0 83.5 13.5t67.5 38t46.5 44t36.5 46.5l14 -10q-44 -76 -121.5 -123t-156.5 -47q-106 0 -186.5 41.5t-127.5 115.5 q-22 -25 -67 -59q-70 -54 -126 -75t-128 -21q-66 0 -109 50t-43 107zM166 176q0 -64 41 -98.5t102 -34.5q50 0 111 30.5t100 76.5q-27 47 -42 112t-15 111q-5 -1 -29 -5.5t-53 -11t-51 -12.5q-85 -25 -124.5 -59.5t-39.5 -108.5zM594 481h422q-12 133 -60.5 207t-126.5 74 q-126 -1 -178 -74t-57 -207z" />
<glyph unicode="&#xe7;" horiz-adv-x="735" d="M47 383q0 111 57 204t149 144t196 51q96 0 174.5 -39.5t78.5 -89.5q0 -29 -19 -50t-48 -21q-26 0 -45 18.5t-19 44.5q0 39 35 64q-60 57 -155 57q-106 0 -186.5 -99.5t-80.5 -238.5q0 -180 87 -296t200 -116q66 0 124.5 44.5t94.5 97.5l17 -11q-10 -19 -32.5 -44t-57 -54 t-83 -50t-98.5 -24q-37 -52 -37 -92q0 -20 31.5 -54t62.5 -71t31 -65q0 -45 -35 -73t-81 -28q-64 0 -115 70l12 10q26 -30 86 -30q37 0 55.5 19.5t18.5 51.5q0 28 -46 88t-46 84q0 37 39 90q-70 2 -135 30.5t-116.5 79t-82.5 128t-31 170.5z" />
<glyph unicode="&#xe8;" horiz-adv-x="755" d="M47 385q0 164 101 279.5t262 115.5q95 0 167 -42.5t105 -125.5q33 -81 33 -151h-539v-33q0 -65 17 -134t49.5 -132t89 -103.5t127.5 -40.5q75 0 129.5 36.5t101.5 105.5l15 -10q-42 -74 -119 -122t-160 -48q-177 0 -278 113t-101 292zM176 481h422q-4 48 -14 91t-30 89 t-56.5 73.5t-85.5 27.5q-126 0 -178.5 -74t-57.5 -207zM209 1245l41 41h63l109 -393l-14 -4z" />
<glyph unicode="&#xe9;" horiz-adv-x="755" d="M47 385q0 164 101 279.5t262 115.5q95 0 167 -42.5t105 -125.5q33 -81 33 -151h-539v-33q0 -65 17 -134t49.5 -132t89 -103.5t127.5 -40.5q75 0 129.5 36.5t101.5 105.5l15 -10q-42 -74 -119 -122t-160 -48q-177 0 -278 113t-101 292zM176 481h422q-4 48 -14 91t-30 89 t-56.5 73.5t-85.5 27.5q-126 0 -178.5 -74t-57.5 -207zM387 893l109 393h63l41 -41l-199 -356z" />
<glyph unicode="&#xea;" horiz-adv-x="755" d="M47 385q0 164 101 279.5t262 115.5q95 0 167 -42.5t105 -125.5q33 -81 33 -151h-539v-33q0 -65 17 -134t49.5 -132t89 -103.5t127.5 -40.5q75 0 129.5 36.5t101.5 105.5l15 -10q-42 -74 -119 -122t-160 -48q-177 0 -278 113t-101 292zM176 481h422q-4 48 -14 91t-30 89 t-56.5 73.5t-85.5 27.5q-126 0 -178.5 -74t-57.5 -207zM186 879l183 309h22l178 -309l-16 -9l-166 224h-14l-170 -224z" />
<glyph unicode="&#xeb;" horiz-adv-x="755" d="M47 385q0 164 101 279.5t262 115.5q95 0 167 -42.5t105 -125.5q33 -81 33 -151h-539v-33q0 -65 17 -134t49.5 -132t89 -103.5t127.5 -40.5q75 0 129.5 36.5t101.5 105.5l15 -10q-42 -74 -119 -122t-160 -48q-177 0 -278 113t-101 292zM150 954q0 28 19.5 47t47.5 19 t47 -19t19 -47t-19 -47.5t-47 -19.5t-47.5 19.5t-19.5 47.5zM176 481h422q-4 48 -14 91t-30 89t-56.5 73.5t-85.5 27.5q-126 0 -178.5 -74t-57.5 -207zM498 954q0 28 19.5 47t47.5 19t47 -19t19 -47t-19 -47.5t-47 -19.5t-47.5 19.5t-19.5 47.5z" />
<glyph unicode="&#xec;" horiz-adv-x="403" d="M35 1245l41 41h63l109 -393l-15 -4zM47 0v20h51q28 0 37.5 11t9.5 47v571v30.5t-2.5 23t-8 21t-16 10.5t-26.5 5h-45v21h221v-740h90v-20h-311z" />
<glyph unicode="&#xed;" horiz-adv-x="403" d="M47 0v20h51q28 0 37.5 11t9.5 47v571v30.5t-2.5 23t-8 21t-16 10.5t-26.5 5h-45v21h221v-740h90v-20h-311zM135 893l109 393h63l41 -41l-198 -356z" />
<glyph unicode="&#xee;" horiz-adv-x="403" d="M-2 889l182 309h23l178 -309l-16 -8l-166 223h-15l-170 -223zM47 0v20h51q28 0 37.5 11t9.5 47v571v30.5t-2.5 23t-8 21t-16 10.5t-26.5 5h-45v21h221v-740h90v-20h-311z" />
<glyph unicode="&#xef;" horiz-adv-x="403" d="M14 954q0 28 20 47t48 19t46.5 -19t18.5 -47t-18.5 -47.5t-46.5 -19.5t-48 19.5t-20 47.5zM47 0v20h51q28 0 37.5 11t9.5 47v571v30.5t-2.5 23t-8 21t-16 10.5t-26.5 5h-45v21h221v-740h90v-20h-311zM217 954q0 28 20 47t48 19t46.5 -19t18.5 -47t-18.5 -47.5 t-46.5 -19.5t-48 19.5t-20 47.5z" />
<glyph unicode="&#xf0;" d="M47 373q0 104 55.5 199.5t146 153.5t189.5 58q152 0 236 -145q-20 136 -78.5 282.5t-159.5 270.5l-215 -129l-10 14l215 127q-95 115 -227 193l8 12q135 -53 268 -176l205 121l10 -13l-203 -120q155 -150 253 -359.5t98 -441.5q0 -196 -115 -320.5t-299 -124.5 q-157 0 -267 114t-110 284zM182 383q0 -170 77.5 -279.5t172.5 -109.5q63 0 111.5 23.5t78.5 61.5t49 90.5t26.5 104.5t7.5 109q0 168 -76 275.5t-193 107.5q-64 0 -114.5 -35t-80 -92t-44.5 -122.5t-15 -133.5z" />
<glyph unicode="&#xf1;" horiz-adv-x="897" d="M45 0v20h45q35 0 44 9.5t9 40.5v581q0 22 -0.5 32t-3 23.5t-8.5 19t-16.5 9.5t-26.5 4h-43v21h221v-125q45 45 129 97t150 52q68 0 112 -17.5t67.5 -56t32.5 -87t9 -121.5v-482h96v-20h-332v20h72q26 0 33.5 10t7.5 48v379q0 51 -1 79t-5.5 64.5t-13.5 55.5t-25 37.5 t-41.5 26t-60.5 7.5q-26 0 -46.5 -3.5t-71.5 -30.5t-112 -79v-594h86v-20h-307zM262 1042q31 69 74 98t86 29q34 0 94.5 -41t95.5 -41q29 0 45.5 17t28.5 57h12q-14 -63 -52 -99t-81 -36q-33 0 -97 44t-97 44q-56 0 -97 -72h-12z" />
<glyph unicode="&#xf2;" d="M47 373q0 104 55.5 199.5t146 153.5t189.5 58q96 0 174 -33.5t126.5 -90.5t74 -129t25.5 -152q0 -100 -51 -192t-148 -152t-215 -60q-157 0 -267 114t-110 284zM182 383q0 -170 77.5 -279.5t172.5 -109.5q63 0 111.5 23.5t78.5 61.5t49 90.5t26.5 104.5t7.5 109 q0 168 -76 275.5t-193 107.5q-64 0 -114.5 -35t-80 -92t-44.5 -122.5t-15 -133.5zM283 1245l41 41h63l109 -393l-15 -4z" />
<glyph unicode="&#xf3;" d="M47 373q0 104 55.5 199.5t146 153.5t189.5 58q96 0 174 -33.5t126.5 -90.5t74 -129t25.5 -152q0 -100 -51 -192t-148 -152t-215 -60q-157 0 -267 114t-110 284zM182 383q0 -170 77.5 -279.5t172.5 -109.5q63 0 111.5 23.5t78.5 61.5t49 90.5t26.5 104.5t7.5 109 q0 168 -76 275.5t-193 107.5q-64 0 -114.5 -35t-80 -92t-44.5 -122.5t-15 -133.5zM467 893l108 393h64l41 -41l-199 -356z" />
<glyph unicode="&#xf4;" d="M47 373q0 104 55.5 199.5t146 153.5t189.5 58q96 0 174 -33.5t126.5 -90.5t74 -129t25.5 -152q0 -100 -51 -192t-148 -152t-215 -60q-157 0 -267 114t-110 284zM182 383q0 -170 77.5 -279.5t172.5 -109.5q63 0 111.5 23.5t78.5 61.5t49 90.5t26.5 104.5t7.5 109 q0 168 -76 275.5t-193 107.5q-64 0 -114.5 -35t-80 -92t-44.5 -122.5t-15 -133.5zM285 889l182 309h22l179 -309l-17 -8l-166 223h-14l-170 -223z" />
<glyph unicode="&#xf5;" d="M47 373q0 104 55.5 199.5t146 153.5t189.5 58q96 0 174 -33.5t126.5 -90.5t74 -129t25.5 -152q0 -100 -51 -192t-148 -152t-215 -60q-157 0 -267 114t-110 284zM182 383q0 -170 77.5 -279.5t172.5 -109.5q63 0 111.5 23.5t78.5 61.5t49 90.5t26.5 104.5t7.5 109 q0 168 -76 275.5t-193 107.5q-64 0 -114.5 -35t-80 -92t-44.5 -122.5t-15 -133.5zM248 920q31 69 74 98t86 29q34 0 94.5 -41t95.5 -41q29 0 45.5 16.5t28.5 56.5h12q-14 -63 -52 -99t-81 -36q-33 0 -97.5 44t-97.5 44q-56 0 -96 -71h-12z" />
<glyph unicode="&#xf6;" d="M47 373q0 104 55.5 199.5t146 153.5t189.5 58q96 0 174 -33.5t126.5 -90.5t74 -129t25.5 -152q0 -100 -51 -192t-148 -152t-215 -60q-157 0 -267 114t-110 284zM182 383q0 -170 77.5 -279.5t172.5 -109.5q63 0 111.5 23.5t78.5 61.5t49 90.5t26.5 104.5t7.5 109 q0 168 -76 275.5t-193 107.5q-64 0 -114.5 -35t-80 -92t-44.5 -122.5t-15 -133.5zM229 954q0 28 20 47t48 19t46.5 -19t18.5 -47t-18.5 -47.5t-46.5 -19.5t-48 19.5t-20 47.5zM578 954q0 28 19.5 47t47.5 19t47 -19t19 -47t-19 -47.5t-47 -19.5t-47.5 19.5t-19.5 47.5z" />
<glyph unicode="&#xf7;" horiz-adv-x="1013" d="M72 551v102h870v-102h-870zM430 293q0 36 24 61t58 25q35 0 59.5 -24.5t24.5 -61.5t-24.5 -61.5t-59.5 -24.5q-34 0 -58 25t-24 61zM430 889q0 35 24 61.5t58 26.5q35 0 59.5 -26t24.5 -62q0 -37 -24.5 -61.5t-59.5 -24.5q-34 0 -58 25t-24 61z" />
<glyph unicode="&#xf8;" d="M47 373q0 104 55.5 199.5t146 153.5t189.5 58q125 0 215 -55l135 238l19 -9l-135 -241q81 -54 123.5 -144.5t42.5 -193.5q0 -100 -51 -192t-148 -152t-215 -60q-76 0 -154 33l-98 -176l-18 8l98 176q-93 48 -149 143t-56 214zM182 383q0 -195 101 -311l338 598 q-76 96 -185 96q-64 0 -114.5 -35t-80 -92t-44.5 -122.5t-15 -133.5zM299 55q64 -61 133 -61q63 0 111.5 23.5t78.5 61.5t49 90.5t26.5 104.5t7.5 109q0 159 -72 268z" />
<glyph unicode="&#xf9;" horiz-adv-x="868" d="M33 739v21h221v-488q0 -35 1.5 -60t8.5 -59t20 -55.5t37.5 -37t59.5 -15.5q123 0 223 105v536q0 37 -11 45t-54 8h-45v21h233v-662q0 -53 14 -65.5t60 -12.5h18v-20h-215v125q-45 -35 -66.5 -51t-64 -43t-80.5 -39t-76 -12q-46 0 -80.5 20t-54 49.5t-31.5 72t-16 80 t-4 79.5v374q0 57 -9 70.5t-44 13.5h-45zM236 1245l40 41h64l109 -393l-15 -4z" />
<glyph unicode="&#xfa;" horiz-adv-x="868" d="M33 739v21h221v-488q0 -35 1.5 -60t8.5 -59t20 -55.5t37.5 -37t59.5 -15.5q123 0 223 105v536q0 37 -11 45t-54 8h-45v21h233v-662q0 -53 14 -65.5t60 -12.5h18v-20h-215v125q-45 -35 -66.5 -51t-64 -43t-80.5 -39t-76 -12q-46 0 -80.5 20t-54 49.5t-31.5 72t-16 80 t-4 79.5v374q0 57 -9 70.5t-44 13.5h-45zM399 893l109 393h63l41 -41l-198 -356z" />
<glyph unicode="&#xfb;" horiz-adv-x="868" d="M33 739v21h221v-488q0 -35 1.5 -60t8.5 -59t20 -55.5t37.5 -37t59.5 -15.5q123 0 223 105v536q0 37 -11 45t-54 8h-45v21h233v-662q0 -53 14 -65.5t60 -12.5h18v-20h-215v125q-45 -35 -66.5 -51t-64 -43t-80.5 -39t-76 -12q-46 0 -80.5 20t-54 49.5t-31.5 72t-16 80 t-4 79.5v374q0 57 -9 70.5t-44 13.5h-45zM205 889l182 309h23l178 -309l-17 -8l-165 223h-15l-170 -223z" />
<glyph unicode="&#xfc;" horiz-adv-x="868" d="M33 739v21h221v-488q0 -35 1.5 -60t8.5 -59t20 -55.5t37.5 -37t59.5 -15.5q123 0 223 105v536q0 37 -11 45t-54 8h-45v21h233v-662q0 -53 14 -65.5t60 -12.5h18v-20h-215v125q-45 -35 -66.5 -51t-64 -43t-80.5 -39t-76 -12q-46 0 -80.5 20t-54 49.5t-31.5 72t-16 80 t-4 79.5v374q0 57 -9 70.5t-44 13.5h-45zM98 954q0 28 20 47t48 19t46.5 -19t18.5 -47t-18.5 -47.5t-46.5 -19.5t-48 19.5t-20 47.5zM569 954q0 28 20 47t48 19t46.5 -19t18.5 -47t-18.5 -47.5t-46.5 -19.5t-48 19.5t-20 47.5z" />
<glyph unicode="&#xfd;" horiz-adv-x="749" d="M-35 739v21h363v-21h-119l219 -602l229 602h-108v21h223v-21h-47q-8 0 -14.5 -0.5t-12 -2.5t-9 -3.5t-8 -7.5t-6.5 -8.5t-6.5 -12.5t-6.5 -15.5t-8 -20t-9 -23.5l-440 -1141q-9 -26 -18 -43.5t-13.5 -24t-17.5 -22.5q-32 -37 -66 -37q-31 0 -47 20t-16 48q0 27 18 48.5 t47 21.5q23 0 39 -18t16 -40q21 14 31 43l189 480l-265 665q-3 9 -10 26.5t-9.5 24t-9 17.5t-12 15t-15 7.5t-21.5 3.5h-60zM428 893l109 393h63l41 -41l-199 -356z" />
<glyph unicode="&#xfe;" horiz-adv-x="907" d="M37 -602h45q19 0 26.5 0.5t15 5.5t9.5 14.5t2 28.5v1876q0 26 -8 35.5t-35 9.5h-55v21h221v-719q158 118 264 118q90 0 158 -33t106 -89t56 -119.5t18 -134.5q0 -113 -43.5 -210t-128 -157.5t-192.5 -60.5q-120 0 -238 94v-680h131v-21h-352v21zM258 98q40 -36 96 -62 t107 -26q49 0 90 16.5t69 44.5t48.5 63t32 76t17 78.5t5.5 73.5q0 72 -12.5 136.5t-39 122.5t-76.5 92.5t-118 34.5q-52 0 -111 -29.5t-108 -73.5v-547z" />
<glyph unicode="&#xff;" horiz-adv-x="749" d="M-35 739v21h363v-21h-119l219 -602l229 602h-108v21h223v-21h-47q-8 0 -14.5 -0.5t-12 -2.5t-9 -3.5t-8 -7.5t-6.5 -8.5t-6.5 -12.5t-6.5 -15.5t-8 -20t-9 -23.5l-440 -1141q-9 -26 -18 -43.5t-13.5 -24t-17.5 -22.5q-32 -37 -66 -37q-31 0 -47 20t-16 48q0 27 18 48.5 t47 21.5q23 0 39 -18t16 -40q21 14 31 43l189 480l-265 665q-3 9 -10 26.5t-9.5 24t-9 17.5t-12 15t-15 7.5t-21.5 3.5h-60zM74 954q0 28 19.5 47t47.5 19t47 -19t19 -47t-19 -47.5t-47 -19.5t-47.5 19.5t-19.5 47.5zM606 954q0 28 20 47t48 19t46.5 -19t18.5 -47 t-18.5 -47.5t-46.5 -19.5t-48 19.5t-20 47.5z" />
<glyph unicode="&#x152;" horiz-adv-x="1613" d="M63 692q2 131 44.5 245t113 195.5t161 140.5t188.5 87.5t196 28.5q90 0 172 -21h539v-227h-21q-11 108 -55.5 157.5t-159.5 49.5h-235q203 -72 328.5 -248.5t121.5 -405.5q-2 -124 -41.5 -235.5t-106.5 -195.5t-150.5 -145.5t-178.5 -97.5h340q68 0 109.5 10t65.5 36.5 t33.5 59.5t16.5 93h19v-219h-648q-89 -25 -174 -25q-96 0 -193.5 30.5t-185 92.5t-155 146.5t-107 200.5t-37.5 247zM227 664q7 -310 145 -482.5t369 -181.5v1366q-105 -6 -201 -61.5t-166 -147t-110.5 -220.5t-36.5 -273zM885 20h10q166 55 279.5 232.5t117.5 423.5h-319 q-34 0 -61 -18t-27 -54v-584zM885 696h407v19q0 251 -114.5 422t-292.5 215v-656z" />
<glyph unicode="&#x153;" horiz-adv-x="1417" d="M47 375q0 159 120 284t271 125q221 0 334 -168q47 76 124 120t175 44q112 0 178.5 -50t93.5 -118q33 -85 33 -151h-538v-15q0 -54 8.5 -110t28.5 -114t50 -102.5t78 -73t107 -28.5q40 0 75 10t58 23t46.5 35.5t34.5 36t28 37.5l14 -10q-44 -76 -122 -123t-157 -47 q-112 0 -194 46t-129 128q-55 -81 -144 -130t-198 -49q-153 0 -264 115.5t-111 284.5zM182 379q0 -169 78 -277t174 -108q76 0 131 34.5t84 93.5t42.5 124.5t13.5 140.5q0 168 -76.5 273.5t-194.5 105.5q-64 0 -114 -35.5t-79 -93.5t-44 -124t-15 -134zM838 481h422 q-12 133 -60.5 207t-126.5 74q-126 -1 -178 -74t-57 -207z" />
<glyph unicode="&#x178;" horiz-adv-x="985" d="M-45 1348v20h416v-20h-140l332 -699l330 699h-182v20h331v-20q-35 0 -56 -1t-40.5 -7.5t-29 -12.5t-23.5 -25.5t-22 -36t-25 -53.5l-266 -569v-623h159v-20h-467v20h82q82 0 82 76v520l-278 549q-12 23 -28 56.5t-22.5 46t-18 31.5t-19 25t-21.5 13.5t-30 9t-39 1.5h-25z M86 1522q0 27 20 46t48 19t46.5 -18.5t18.5 -46.5t-19 -48t-46 -20q-28 0 -48 20t-20 48zM846 1522q0 28 19.5 46.5t47.5 18.5t47 -18.5t19 -46.5t-19 -48t-47 -20t-47.5 20t-19.5 48z" />
<glyph unicode="&#x2c6;" horiz-adv-x="448" d="M35 889l182 309h23l178 -309l-17 -8l-165 223h-15l-170 -223z" />
<glyph unicode="&#x2dc;" horiz-adv-x="587" d="M78 1042q31 69 74 98t86 29q34 0 94.5 -41t95.5 -41q29 0 45.5 17t28.5 57h12q-14 -63 -52 -99t-81 -36q-33 0 -97.5 44t-97.5 44q-55 0 -96 -72h-12z" />
<glyph unicode="&#x2000;" horiz-adv-x="829" />
<glyph unicode="&#x2001;" horiz-adv-x="1659" />
<glyph unicode="&#x2002;" horiz-adv-x="829" />
<glyph unicode="&#x2003;" horiz-adv-x="1659" />
<glyph unicode="&#x2004;" horiz-adv-x="553" />
<glyph unicode="&#x2005;" horiz-adv-x="414" />
<glyph unicode="&#x2006;" horiz-adv-x="276" />
<glyph unicode="&#x2007;" horiz-adv-x="276" />
<glyph unicode="&#x2008;" horiz-adv-x="207" />
<glyph unicode="&#x2009;" horiz-adv-x="331" />
<glyph unicode="&#x200a;" horiz-adv-x="92" />
<glyph unicode="&#x2010;" horiz-adv-x="561" d="M82 369v73h397v-73h-397z" />
<glyph unicode="&#x2011;" horiz-adv-x="561" d="M82 369v73h397v-73h-397z" />
<glyph unicode="&#x2012;" horiz-adv-x="561" d="M82 369v73h397v-73h-397z" />
<glyph unicode="&#x2013;" horiz-adv-x="1091" d="M82 377v63h928v-63h-928z" />
<glyph unicode="&#x2014;" horiz-adv-x="1689" d="M102 377v63h1485v-63h-1485z" />
<glyph unicode="&#x2018;" horiz-adv-x="270" d="M61 1149q0 58 31 116.5t63.5 91.5t63.5 54l10 -12q-105 -83 -133 -172q-2 -10 -2 -25q0 -18 10 -18q3 0 15 5t20 5q28 0 45 -20t17 -48q0 -30 -18 -52.5t-42 -22.5q-35 0 -57.5 30t-22.5 68z" />
<glyph unicode="&#x2019;" horiz-adv-x="270" d="M41 1059q105 83 133 172q2 10 2 24q0 19 -10 19q-3 0 -15 -5t-20 -5q-28 0 -44.5 19.5t-16.5 47.5q0 30 17.5 53t41.5 23q35 0 57.5 -30t22.5 -68q0 -58 -31 -116.5t-63.5 -91.5t-63.5 -54z" />
<glyph unicode="&#x201a;" horiz-adv-x="290" d="M41 -221q105 83 133 172q2 10 2 24q0 19 -10 19q-3 0 -15 -5t-20 -5q-28 0 -44.5 19.5t-16.5 47.5q0 30 17.5 53t41.5 23q35 0 57.5 -30t22.5 -68q0 -58 -31 -116.5t-63.5 -91.5t-63.5 -54z" />
<glyph unicode="&#x201c;" horiz-adv-x="485" d="M61 1149q0 58 31 116.5t63.5 91.5t63.5 54l10 -12q-105 -83 -133 -172q-2 -10 -2 -25q0 -18 10 -18q3 0 15 5t20 5q28 0 45 -20t17 -48q0 -30 -18 -52.5t-42 -22.5q-35 0 -57.5 30t-22.5 68zM276 1149q0 58 31 116.5t63.5 91.5t63.5 54l10 -12q-105 -83 -133 -172 q-2 -10 -2 -25q0 -18 10 -18q3 0 15 5t20 5q28 0 45 -20t17 -48q0 -30 -18 -52.5t-42 -22.5q-35 0 -57.5 30t-22.5 68z" />
<glyph unicode="&#x201d;" horiz-adv-x="485" d="M41 1059q105 83 133 172q2 10 2 24q0 19 -10 19q-3 0 -15 -5t-20 -5q-28 0 -44.5 19.5t-16.5 47.5q0 30 17.5 53t41.5 23q35 0 57.5 -30t22.5 -68q0 -58 -31 -116.5t-63.5 -91.5t-63.5 -54zM256 1059q105 83 133 172q2 10 2 24q0 19 -10 19q-3 0 -15 -5t-20 -5 q-28 0 -44.5 19.5t-16.5 47.5q0 30 17.5 53t41.5 23q35 0 57.5 -30t22.5 -68q0 -58 -31 -116.5t-63.5 -91.5t-63.5 -54z" />
<glyph unicode="&#x201e;" horiz-adv-x="505" d="M41 -221q105 83 133 172q2 10 2 24q0 19 -10 19q-3 0 -15 -5t-20 -5q-28 0 -44.5 19.5t-16.5 47.5q0 30 17.5 53t41.5 23q35 0 57.5 -30t22.5 -68q0 -58 -31 -116.5t-63.5 -91.5t-63.5 -54zM256 -221q105 83 133 172q2 10 2 24q0 19 -10 19q-3 0 -15 -5t-20 -5 q-28 0 -44.5 19.5t-16.5 47.5q0 30 17.5 53t41.5 23q35 0 57.5 -30t22.5 -68q0 -58 -31 -116.5t-63.5 -91.5t-63.5 -54z" />
<glyph unicode="&#x2022;" horiz-adv-x="749" d="M123 696q0 104 74 178t178 74t178 -74t74 -178t-74 -178t-178 -74t-178 74t-74 178z" />
<glyph unicode="&#x2026;" horiz-adv-x="1507" d="M102 53q0 32 23 55t55 23t55 -23t23 -55t-23 -55t-55 -23t-55 23t-23 55zM676 53q0 32 23 55t55 23t54.5 -23t22.5 -55t-22.5 -55t-54.5 -23t-55 23t-23 55zM1249 53q0 32 23 55t55 23t55 -23t23 -55t-23 -55t-55 -23t-55 23t-23 55z" />
<glyph unicode="&#x202f;" horiz-adv-x="331" />
<glyph unicode="&#x2039;" horiz-adv-x="485" d="M92 395q0 61 31 108.5t72.5 71.5t89.5 40t74 20t34 4v-16q-7 0 -27.5 -5.5t-53 -21.5t-61.5 -39t-50 -64t-21 -90q0 -53 19 -99t45.5 -73t56 -47t48.5 -28t26 -9v-16q-12 3 -31 8.5t-67.5 27.5t-86 49t-68 75t-30.5 104z" />
<glyph unicode="&#x203a;" horiz-adv-x="485" d="M92 131v16q7 0 27.5 5.5t53 21.5t61.5 39t50 64t21 90q0 53 -19 99t-45 73t-56 47t-48.5 28t-25.5 9v16q6 -1 16 -4t39.5 -13.5t56 -23.5t59 -35.5t56 -48t39.5 -62t16 -77.5q0 -61 -31 -108.5t-72.5 -71.5t-89.5 -40t-74 -20t-34 -4z" />
<glyph unicode="&#x205f;" horiz-adv-x="414" />
<glyph unicode="&#x20ac;" horiz-adv-x="1042" d="M61 596q0 127 35.5 229.5t93 167.5t135 109t157 62t163.5 18q65 0 164.5 -22.5t140.5 -37.5q6 -162 6 -207l-16 -2q-11 76 -38 125t-71.5 74t-95.5 34t-125 9q-83 0 -157.5 -35.5t-133 -102t-92.5 -172t-34 -237.5q0 -94 16.5 -181t53 -165t90 -135.5t131.5 -91 t173 -33.5q75 0 126.5 14t84.5 46.5t52 75t34 108.5l17 -2l-6 -203q-140 -61 -314 -61q-115 0 -222.5 45.5t-188.5 125t-130 196t-49 249.5zM295 528v29h545v-29h-545zM295 610v29h545v-29h-545z" />
<glyph unicode="&#x2122;" horiz-adv-x="1466" d="M41 1235l8 117h588q2 -96 4 -123h-18q-6 100 -72 100h-162v-633h84v-22h-260v20h18q41 0 55.5 12.5t14.5 45.5v499q0 52 -10.5 66t-40.5 14h-119q-69 0 -74 -96h-16zM662 666v20h18q33 0 46 7t13 34v553q0 36 -9.5 43.5t-53.5 7.5h-14v21h176l209 -555l182 555h168v-21 h-68v-645h76v-20h-221v20h24q20 0 27.5 6.5t7.5 32.5v608l-221 -667h-10l-246 647h-2v-627h84v-20h-186z" />
<glyph unicode="&#xe000;" horiz-adv-x="757" d="M0 0v758h758v-758h-758z" />
</font>
</defs>
</svg>
